<?xml version="1.0" encoding="utf-8"?>
<!-- Generator: Adobe Illustrator 25.0.0, SVG Export Plug-In . SVG Version: 6.00 Build 0)  -->
<svg version="1.1" id="레이어_1" xmlns="http://www.w3.org/2000/svg" xmlns:xlink="http://www.w3.org/1999/xlink" x="0px"
	 y="0px" viewBox="0 0 39 57" style="enable-background:new 0 0 39 57;" xml:space="preserve">
<style type="text/css">
	.st0{fill:none;stroke:#484848;stroke-width:1.5;stroke-linecap:round;stroke-linejoin:round;stroke-miterlimit:10;}
	.st1{fill:none;stroke:#484848;stroke-linecap:round;stroke-linejoin:round;stroke-miterlimit:10;}
</style>
<path class="st0" d="M23.2,12.8c0,0,1.7-1,3.8-0.3c2.2,0.7,5.3-1,5.3-1"/>
<line class="st0" x1="28.3" y1="12.7" x2="28.3" y2="17"/>
<polyline class="st0" points="24.4,23.5 24.4,17 32,17 32,23.5 "/>
<path class="st0" d="M20.7,24.3c0.7-0.5,1.6-0.8,2.5-0.8h10.3c2.4,0,4.3,1.9,4.3,4.3v23.8H20.4"/>
<rect x="23.6" y="35.3" class="st1" width="8.5" height="11.2"/>
<path class="st0" d="M5.5,6.7c0,0,1.7-1,3.8-0.3s5.3-1,5.3-1"/>
<line class="st0" x1="10.7" y1="6.6" x2="10.7" y2="11"/>
<polyline class="st0" points="6.7,17.4 6.7,11 14.4,11 14.4,17.4 "/>
<path class="st0" d="M20.1,24.3v27.3H1.2V21.7c0-2.4,1.9-4.3,4.3-4.3h10.3c2.4,0,4.3,1.9,4.3,4.3V24.3"/>
<rect x="5.9" y="29.7" class="st1" width="9.4" height="16.8"/>
</svg>
