<?xml version="1.0" standalone="no"?>
<!DOCTYPE svg PUBLIC "-//W3C//DTD SVG 20010904//EN"
 "http://www.w3.org/TR/2001/REC-SVG-20010904/DTD/svg10.dtd">
<svg version="1.0" xmlns="http://www.w3.org/2000/svg"
 viewBox="0 0 2600.000000 2600.000000"
 preserveAspectRatio="xMidYMid meet">
<metadata>
Created by potrace 1.15, written by Peter Selinger 2001-2017
</metadata>
<g transform="translate(0.000000,2600.000000) scale(0.100000,-0.100000)"
fill="#000000" stroke="none">
<path d="M11425 20195 c-957 -89 -1815 -514 -2446 -1213 -126 -141 -419 -518
-419 -541 0 -6 -25 -55 -56 -107 -118 -206 -218 -426 -295 -655 -28 -82 -71
-193 -96 -247 -254 -543 -425 -1359 -493 -2352 -29 -430 -41 -1303 -23 -1673
l6 -137 986 0 986 0 -35 -22 c-431 -268 -767 -578 -1052 -969 -285 -390 -500
-883 -592 -1355 -64 -328 -60 -194 -63 -2066 l-4 -1708 46 -112 c26 -62 52
-118 58 -124 7 -6 62 -32 124 -58 l112 -46 5603 0 5603 1 100 37 100 38 52
104 52 105 0 875 c1 909 -5 1085 -39 1262 -105 546 -428 1012 -927 1338 l-101
66 94 63 c157 104 291 216 455 380 175 175 253 270 374 451 264 395 425 837
480 1315 17 147 20 471 5 615 -115 1126 -828 2071 -1878 2489 -538 214 -1158
263 -1727 136 -190 -43 -467 -136 -596 -201 l-46 -23 -27 172 c-90 565 -243
1112 -394 1412 -19 39 -52 122 -72 185 -251 772 -740 1431 -1414 1904 -248
174 -456 288 -728 397 -553 222 -1157 315 -1713 264z m2069 -1079 c735 -489
1228 -1248 1369 -2106 42 -254 54 -622 29 -855 -58 -515 -230 -996 -505 -1413
-722 -1092 -2010 -1626 -3295 -1366 -270 55 -525 145 -792 280 -902 457 -1531
1317 -1694 2314 -54 332 -50 761 10 1085 69 366 200 712 396 1047 l40 67 56
-28 c427 -215 1026 -351 1542 -351 995 1 1935 398 2482 1050 78 93 238 322
238 340 0 17 11 11 124 -64z m3901 -3530 c127 -20 226 -41 340 -73 420 -119
849 -390 1136 -719 335 -383 531 -816 600 -1324 17 -122 17 -468 0 -590 -59
-432 -216 -825 -464 -1156 -399 -535 -975 -872 -1647 -965 -142 -20 -507 -17
-650 4 -512 79 -965 299 -1334 648 -392 372 -648 863 -732 1404 -22 147 -29
425 -14 585 98 1067 889 1949 1937 2160 81 16 191 34 243 39 128 13 462 5 585
-13z m-4367 -3203 c-4 -539 -6 -615 -21 -668 -46 -158 -137 -229 -350 -271
-70 -14 -187 -17 -782 -21 -736 -5 -898 1 -1041 37 -164 42 -238 109 -282 255
-13 42 -16 149 -19 648 -3 338 0 597 4 597 5 0 48 -13 95 -29 213 -72 518
-136 773 -162 66 -6 215 -12 330 -12 116 0 264 6 330 12 274 28 572 92 814
175 69 24 132 44 139 45 11 1 13 -109 10 -606z m-2915 -55 c3 -494 7 -605 20
-663 87 -385 320 -580 774 -647 126 -19 1619 -19 1748 0 485 70 736 308 784
745 7 56 11 313 11 613 l0 516 88 -47 c178 -96 421 -269 590 -422 52 -47 55
-52 102 -193 138 -414 363 -787 667 -1110 l90 -95 21 -90 c41 -174 63 -316 78
-508 l6 -88 -99 -102 c-315 -323 -507 -730 -553 -1177 -5 -54 -10 -443 -10
-897 l0 -803 -3030 0 -3030 0 0 1438 c0 1431 4 1658 36 1871 126 867 639 1633
1406 2099 82 50 275 152 288 152 5 0 10 -241 13 -592z m6345 -2073 c484 -99
990 -75 1462 69 42 12 50 11 107 -10 505 -190 881 -558 1032 -1010 65 -194 64
-175 68 -1101 l4 -843 -2076 0 -2076 0 4 858 c3 833 4 860 24 947 43 181 118
351 225 507 186 272 483 500 823 632 l86 33 97 -29 c53 -15 152 -39 220 -53z"/>
<path d="M9961 17064 c-209 -56 -349 -266 -314 -471 40 -232 256 -392 479
-355 234 39 395 258 354 483 -32 180 -164 316 -340 349 -70 13 -113 12 -179
-6z"/>
<path d="M13305 17064 c-189 -46 -316 -210 -317 -409 0 -211 142 -378 355
-416 204 -37 419 102 472 307 61 234 -73 457 -312 519 -69 18 -119 18 -198 -1z"/>
<path d="M10872 14987 c-126 -46 -183 -193 -121 -312 42 -83 220 -225 388
-309 98 -50 256 -101 371 -121 122 -21 335 -21 455 0 247 44 490 163 674 331
132 120 146 247 41 355 -92 95 -208 93 -324 -5 -184 -157 -344 -230 -533 -244
-268 -21 -491 54 -690 230 -32 28 -76 59 -98 69 -45 21 -114 23 -163 6z"/>
<path d="M16511 15120 c-50 -12 -111 -60 -135 -105 -15 -28 -21 -59 -21 -100
0 -53 7 -75 53 -170 249 -513 727 -859 1290 -935 107 -14 331 -14 435 1 167
23 389 91 457 139 37 26 80 110 80 155 0 114 -95 214 -204 215 -22 0 -88 -16
-147 -35 -139 -45 -265 -65 -409 -65 -344 0 -636 122 -881 369 -115 116 -167
188 -253 358 -62 121 -86 146 -163 169 -51 15 -53 15 -102 4z"/>
<path d="M15654 13410 c-162 -64 -244 -251 -184 -415 30 -81 114 -164 191
-191 114 -39 241 -14 331 65 47 41 95 136 103 206 16 122 -62 263 -179 322
-71 36 -188 42 -262 13z"/>
<path d="M18225 13412 c-180 -62 -266 -273 -181 -447 63 -128 213 -204 349
-175 206 42 319 258 235 451 -28 67 -118 150 -188 172 -67 22 -151 21 -215 -1z"/>
<path d="M16374 11821 c-53 -24 -86 -71 -92 -131 -7 -71 12 -112 77 -173 119
-110 272 -193 445 -240 108 -29 383 -32 486 -4 222 61 467 212 520 321 35 73
21 145 -40 199 -63 57 -152 62 -214 12 -139 -114 -235 -169 -346 -196 -77 -19
-250 -17 -330 5 -88 24 -203 85 -275 148 -95 81 -151 95 -231 59z"/>
</g>
</svg>
