<?xml version="1.0" standalone="no"?>
<!DOCTYPE svg PUBLIC "-//W3C//DTD SVG 20010904//EN"
 "http://www.w3.org/TR/2001/REC-SVG-20010904/DTD/svg10.dtd">
<svg version="1.0" xmlns="http://www.w3.org/2000/svg"
 viewBox="0 0 2600.000000 2600.000000"
 preserveAspectRatio="xMidYMid meet">
<metadata>
Created by potrace 1.15, written by Peter Selinger 2001-2017
</metadata>
<g transform="translate(0.000000,2600.000000) scale(0.100000,-0.100000)"
fill="#000000" stroke="none">
<path d="M5597 18633 c-4 -3 -7 -1041 -7 -2305 l0 -2298 -410 0 -410 0 0 1085
0 1085 -337 -2 -338 -3 -3 -1417 -2 -1418 750 0 750 0 0 -2185 0 -2185 2635 0
2635 0 0 -650 0 -650 -635 0 -635 0 0 -335 0 -335 970 0 970 0 0 985 0 985
1560 0 1560 0 0 -650 0 -650 -635 0 -635 0 0 -335 0 -335 975 0 975 0 0 985 0
985 1830 0 1830 0 0 2185 0 2185 410 0 410 0 2 -1082 3 -1083 335 0 335 0 3
1418 2 1417 -750 0 -750 0 0 2305 0 2305 -6693 0 c-3682 0 -6697 -3 -6700 -7z
m12713 -4823 l0 -4150 -6020 0 -6020 0 0 4150 0 4150 6020 0 6020 0 0 -4150z"/>
<path d="M7120 13815 l0 -3275 4020 0 4020 0 0 3275 0 3275 -4020 0 -4020 0 0
-3275z m7370 0 l0 -2605 -3350 0 -3350 0 0 2605 0 2605 3350 0 3350 0 0 -2605z"/>
<path d="M9364 15331 c-210 -60 -351 -283 -316 -498 40 -243 272 -414 508
-375 316 52 483 401 321 670 -106 178 -315 260 -513 203z"/>
<path d="M12681 15334 c-149 -40 -260 -144 -312 -292 -17 -46 -20 -76 -17
-158 3 -93 6 -107 40 -175 66 -134 185 -224 328 -250 192 -34 388 67 477 248
34 68 38 85 41 172 4 106 -15 185 -64 263 -102 161 -309 242 -493 192z"/>
<path d="M9713 13173 c6 -235 24 -342 84 -503 181 -490 599 -836 1117 -925
113 -19 334 -19 451 0 308 50 562 180 786 404 207 206 338 444 394 717 19 90
34 280 35 417 l0 97 -1436 0 -1437 0 6 -207z m2372 -285 c-73 -236 -214 -423
-418 -556 -269 -176 -638 -200 -933 -62 -115 53 -196 111 -290 206 -115 116
-215 288 -248 427 l-6 27 954 0 954 0 -13 -42z"/>
<path d="M16621 16405 c-268 -61 -480 -218 -598 -443 -82 -156 -109 -280 -100
-462 6 -129 23 -202 72 -307 112 -242 318 -418 575 -489 92 -26 348 -26 440 0
299 83 526 304 616 601 25 82 28 104 28 245 0 141 -3 163 -28 245 -87 284
-310 507 -591 591 -113 33 -311 42 -414 19z m319 -464 c203 -77 314 -305 250
-513 -37 -120 -113 -207 -229 -262 -61 -29 -74 -31 -172 -31 -101 0 -108 1
-180 37 -93 46 -158 112 -202 206 -30 62 -32 75 -32 172 0 97 2 110 31 170 56
116 133 186 253 227 82 29 195 27 281 -6z"/>
<path d="M15980 13695 l0 -225 810 0 810 0 0 225 0 225 -810 0 -810 0 0 -225z"/>
<path d="M15980 12535 l0 -225 810 0 810 0 0 225 0 225 -810 0 -810 0 0 -225z"/>
<path d="M15980 11375 l0 -225 810 0 810 0 0 225 0 225 -810 0 -810 0 0 -225z"/>
</g>
</svg>
