<?xml version="1.0" standalone="no"?>
<!DOCTYPE svg PUBLIC "-//W3C//DTD SVG 20010904//EN"
 "http://www.w3.org/TR/2001/REC-SVG-20010904/DTD/svg10.dtd">
<svg version="1.0" xmlns="http://www.w3.org/2000/svg"
 viewBox="0 0 2600.000000 2600.000000"
 preserveAspectRatio="xMidYMid meet">
<metadata>
Created by potrace 1.15, written by Peter Selinger 2001-2017
</metadata>
<g transform="translate(0.000000,2600.000000) scale(0.100000,-0.100000)"
fill="#000000" stroke="none">
<path d="M12100 19939 c-631 -12 -1701 -62 -1920 -90 -572 -71 -1133 -282
-1622 -610 -761 -510 -1329 -1247 -1620 -2099 -108 -319 -169 -641 -188 -996
-13 -244 -13 -4871 0 -5119 24 -448 106 -830 272 -1253 507 -1296 1679 -2357
3058 -2766 185 -55 623 -151 917 -200 1518 -257 2993 -214 4483 131 248 57
438 116 664 206 1000 396 1849 1125 2386 2047 290 500 464 1017 537 1600 17
137 18 297 18 2800 0 2904 3 2718 -56 3035 -122 653 -422 1281 -871 1822 -114
138 -368 392 -513 514 -297 250 -642 464 -995 619 -122 54 -401 147 -548 185
-279 70 -416 88 -877 115 -1044 60 -2067 80 -3125 59z m1460 -559 c824 -15
1849 -62 2080 -96 648 -95 1246 -384 1728 -835 l62 -58 0 -888 c0 -1022 -5
-1132 -60 -1373 -183 -802 -893 -1418 -2074 -1799 -464 -150 -1057 -260 -1701
-318 -251 -22 -1065 -25 -1295 -5 -1113 98 -1897 301 -2592 669 -678 360
-1103 854 -1243 1448 -50 211 -50 206 -50 1274 l0 1005 105 94 c471 424 1107
718 1710 791 242 30 1312 79 1950 90 655 12 777 12 1380 1z m-5682 -3200 c139
-786 574 -1390 1347 -1875 149 -94 456 -249 648 -329 289 -120 645 -238 881
-290 l100 -23 13 -77 c77 -458 526 -837 1144 -966 538 -112 1409 -103 1894 20
534 135 936 467 1044 860 12 41 21 91 21 111 0 20 6 41 13 46 6 6 48 18 92 27
346 74 947 297 1275 473 962 517 1490 1205 1617 2107 12 87 17 257 22 783 l6
672 58 -97 c220 -367 384 -815 442 -1209 33 -225 35 -358 35 -2595 l0 -2239
-30 -122 c-158 -631 -500 -1243 -977 -1749 -596 -630 -1308 -1047 -2123 -1242
-1522 -364 -3154 -385 -4690 -61 -557 118 -823 207 -1225 414 -544 279 -1025
676 -1421 1172 -87 110 -248 346 -323 473 -178 303 -330 675 -411 1008 l-30
122 0 2166 c0 1191 5 2246 10 2345 17 341 78 634 197 950 71 189 216 482 312
630 l26 40 6 -710 c5 -674 6 -716 27 -835z m3800 -2665 c837 -116 1688 -114
2520 6 79 11 146 18 149 15 11 -10 -66 -91 -141 -148 -277 -209 -727 -301
-1396 -285 -641 15 -1001 112 -1240 334 -72 67 -100 103 -80 103 6 0 91 -11
188 -25z m-3776 -3990 c640 -726 1512 -1254 2432 -1471 1478 -348 3008 -394
4506 -134 742 129 1184 261 1648 494 325 163 665 387 947 625 268 225 633 622
804 874 18 27 35 47 37 44 11 -10 -126 -297 -222 -463 -570 -995 -1572 -1748
-2656 -1999 -724 -168 -1329 -251 -2068 -285 -811 -37 -1708 37 -2557 211
-564 115 -818 198 -1213 396 -703 352 -1287 884 -1710 1557 -92 147 -300 557
-300 593 0 2 54 -67 119 -154 65 -87 170 -216 233 -288z"/>
<path d="M12650 18909 c-437 -49 -793 -224 -901 -444 -30 -62 -34 -79 -34
-150 0 -107 32 -173 130 -270 154 -153 432 -266 764 -311 152 -20 470 -21 611
0 440 63 756 223 865 437 40 77 46 181 15 262 -89 236 -459 425 -935 477 -106
12 -408 11 -515 -1z m489 -250 c179 -46 281 -127 281 -224 0 -20 -7 -49 -14
-64 -66 -126 -346 -212 -594 -182 -293 36 -461 176 -380 316 46 79 200 153
363 174 94 13 253 3 344 -20z"/>
<path d="M11694 15246 c-94 -30 -187 -122 -219 -218 -23 -67 -21 -172 5 -241
29 -78 96 -149 178 -189 l67 -33 1185 0 c966 0 1192 2 1225 13 152 51 257 211
241 366 -13 128 -106 252 -222 295 -54 21 -68 21 -1237 20 -933 0 -1191 -3
-1223 -13z"/>
<path d="M11197 11733 c-4 -3 -7 -287 -7 -630 l0 -623 1740 0 1740 0 0 630 0
630 -1733 0 c-954 0 -1737 -3 -1740 -7z"/>
<path d="M10050 11539 c-138 -17 -275 -119 -340 -254 -30 -61 -35 -82 -38
-166 -10 -223 102 -390 309 -459 53 -18 81 -21 160 -18 87 3 103 7 173 41 45
23 97 58 126 87 29 29 64 81 87 126 34 70 38 86 41 173 4 115 -15 188 -73 276
-64 96 -186 177 -288 190 -83 11 -93 12 -157 4z"/>
<path d="M15655 11541 c-159 -20 -308 -137 -365 -289 -46 -120 -34 -277 27
-382 86 -146 231 -230 398 -230 177 0 332 97 407 257 153 324 -110 687 -467
644z"/>
</g>
</svg>
