<?xml version="1.0" standalone="no"?>
<!DOCTYPE svg PUBLIC "-//W3C//DTD SVG 20010904//EN"
 "http://www.w3.org/TR/2001/REC-SVG-20010904/DTD/svg10.dtd">
<svg version="1.0" xmlns="http://www.w3.org/2000/svg"
 viewBox="0 0 2600.000000 2600.000000"
 preserveAspectRatio="xMidYMid meet">
<metadata>
Created by potrace 1.15, written by Peter Selinger 2001-2017
</metadata>
<g transform="translate(0.000000,2600.000000) scale(0.100000,-0.100000)"
fill="#000000" stroke="none">
<path d="M6370 13590 l0 -4290 475 0 475 0 0 -405 0 -405 420 0 420 0 0 405 0
405 5075 0 5075 0 0 -405 0 -405 420 0 420 0 0 405 0 405 475 0 475 0 0 4290
0 4290 -6865 0 -6865 0 0 -4290z m9520 0 l0 -3450 -4340 0 -4340 0 0 3450 0
3450 4340 0 4340 0 0 -3450z m3370 0 l0 -3450 -1265 0 -1265 0 0 3450 0 3450
1265 0 1265 0 0 -3450z"/>
<path d="M8000 13585 l0 -2755 3490 0 3490 0 0 2755 0 2755 -3490 0 -3490 0 0
-2755z m6140 0 l0 -1915 -2655 0 -2655 0 0 1915 0 1915 2655 0 2655 0 0 -1915z"/>
<path d="M17868 16370 c-122 -21 -262 -84 -367 -165 -234 -180 -360 -481 -322
-771 44 -333 273 -602 601 -705 66 -21 95 -24 235 -24 140 0 169 3 235 23 545
172 777 790 473 1265 -127 198 -338 340 -564 376 -73 12 -221 12 -291 1z m317
-448 c171 -81 277 -270 247 -442 -29 -164 -139 -294 -289 -340 -255 -79 -513
90 -547 357 -8 67 14 178 50 243 50 93 169 184 271 210 21 5 75 8 120 6 66 -3
95 -10 148 -34z"/>
<path d="M17873 14156 c-334 -64 -589 -299 -674 -621 -30 -113 -30 -308 0
-420 81 -300 306 -525 606 -606 113 -31 307 -31 420 0 241 65 437 225 545 443
63 129 83 219 83 373 0 154 -20 244 -83 372 -136 277 -410 455 -720 468 -66 3
-132 -1 -177 -9z m213 -417 c225 -41 382 -259 344 -476 -32 -184 -171 -324
-353 -353 -118 -19 -259 25 -350 109 -59 55 -113 159 -127 245 -34 215 112
425 330 472 71 16 85 16 156 3z"/>
<path d="M17350 11045 l0 -215 678 2 677 3 0 210 0 210 -677 3 -678 2 0 -215z"/>
</g>
</svg>
