<?xml version="1.0" encoding="utf-8"?>
<!-- Generator: Adobe Illustrator 25.0.0, SVG Export Plug-In . SVG Version: 6.00 Build 0)  -->
<svg version="1.1" id="레이어_1" xmlns="http://www.w3.org/2000/svg" xmlns:xlink="http://www.w3.org/1999/xlink" x="0px"
	 y="0px" viewBox="0 0 57 57" style="enable-background:new 0 0 57 57;" xml:space="preserve">
<style type="text/css">
	.st0{fill:none;stroke:#484848;stroke-linecap:round;stroke-linejoin:round;stroke-miterlimit:10;}
	.st1{fill:none;stroke:#484848;stroke-width:1.5;stroke-linecap:round;stroke-linejoin:round;stroke-miterlimit:10;}
	.st2{fill:#484848;}
</style>
<path class="st0" d="M37.6,40.2"/>
<path class="st1" d="M37.6,40.2H3.4c-1.2,0-2.3-1-2.3-2.3v-30c0-1.2,1-2.3,2.3-2.3h50.2c1.2,0,2.3,1,2.3,2.3v30c0,1.2-1,2.3-2.3,2.3
	h-3.2"/>
<path class="st0" d="M37.6,36.5H6.5c-1,0-1.8-0.8-1.8-1.8V11.1c0-1,0.8-1.8,1.8-1.8h43.8c1,0,1.8,0.8,1.8,1.8v21.4
	c0,1.9,0.4,3.3-1.5,3.7"/>
<line class="st1" x1="15.5" y1="44.3" x2="37.6" y2="44.3"/>
<line class="st0" x1="24.2" y1="41.7" x2="24.2" y2="44.3"/>
<line class="st0" x1="32.7" y1="41.7" x2="32.7" y2="44.3"/>
<path class="st1" d="M45.9,51.3h-3.6c-1,0-1.8-0.8-1.8-1.8V34.5c0-1,0.8-1.8,1.8-1.8h3.6c1,0,1.8,0.8,1.8,1.8v15.1
	C47.6,50.6,46.8,51.3,45.9,51.3z"/>
<circle class="st2" cx="43.5" cy="36.2" r="0.8"/>
<line class="st0" x1="42.7" y1="41.3" x2="45.5" y2="41.3"/>
<line class="st0" x1="42.7" y1="43.2" x2="45.5" y2="43.2"/>
<line class="st0" x1="42.7" y1="45.1" x2="45.5" y2="45.1"/>
</svg>
