<svg width="40" height="40" viewBox="0 0 40 40" fill="none" xmlns="http://www.w3.org/2000/svg">
<rect width="40" height="40" rx="8" fill="white"/>
<g clip-path="url(#clip0_463_1791)">
<path d="M32 20C32 13.3719 26.6281 8 20 8C13.3719 8 8 13.3719 8 20C8 25.9907 12.3875 30.9547 18.125 31.8547V23.4688H15.0781V20H18.125V17.3563C18.125 14.3492 19.9156 12.6875 22.6578 12.6875C23.9703 12.6875 25.3438 12.9219 25.3438 12.9219V15.875H23.8297C22.3391 15.875 21.875 16.8008 21.875 17.75V20H25.2031L24.6711 23.4688H21.875V31.8547C27.6125 30.9547 32 25.9907 32 20Z" fill="#1877F2"/>
<path d="M24.6711 23.4688L25.2031 20H21.875V17.75C21.875 16.8008 22.3391 15.875 23.8297 15.875H25.3438V12.9219C25.3438 12.9219 23.9703 12.6875 22.6578 12.6875C19.9157 12.6875 18.125 14.3492 18.125 17.3562V20H15.0781V23.4688H18.125V31.8547C18.7367 31.9508 19.3625 32 20 32C20.6375 32 21.2633 31.9508 21.875 31.8547V23.4688H24.6711Z" fill="white"/>
</g>
<defs>
<clipPath id="clip0_463_1791">
<rect width="24" height="24" fill="white" transform="translate(8 8)"/>
</clipPath>
</defs>
</svg>
