<svg width="40" height="40" viewBox="0 0 40 40" fill="none" xmlns="http://www.w3.org/2000/svg">
<rect width="40" height="40" rx="8" fill="white"/>
<g clip-path="url(#clip0_463_1796)">
<path fill-rule="evenodd" clip-rule="evenodd" d="M27.8456 13.5944C27.8456 14.3898 27.2008 15.0344 26.4056 15.0344C25.6104 15.0344 24.9656 14.3898 24.9656 13.5944C24.9656 12.7991 25.6104 12.1544 26.4056 12.1544C27.2009 12.1544 27.8456 12.7991 27.8456 13.5944ZM20 23.9999C17.7909 23.9999 16.0001 22.2091 16.0001 20C16.0001 17.7909 17.7909 16.0001 20 16.0001C22.2091 16.0001 23.9999 17.7909 23.9999 20C23.9999 22.2091 22.2091 23.9999 20 23.9999ZM20 13.8378C16.5967 13.8378 13.8378 16.5967 13.8378 20C13.8378 23.4033 16.5967 26.1622 20 26.1622C23.4033 26.1622 26.1622 23.4033 26.1622 20C26.1622 16.5967 23.4033 13.8378 20 13.8378ZM20 10.1623C23.2042 10.1623 23.5837 10.1744 24.8489 10.2322C26.0189 10.2856 26.6544 10.481 27.0772 10.6454C27.6373 10.8631 28.037 11.1232 28.457 11.5432C28.877 11.963 29.1371 12.3628 29.3547 12.923C29.519 13.3458 29.7146 13.9812 29.768 15.1512C29.8258 16.4167 29.8379 16.7962 29.8379 20.0004C29.8379 23.2046 29.8258 23.5841 29.768 24.8493C29.7146 26.0193 29.5192 26.6548 29.3547 27.0776C29.1371 27.6376 28.877 28.0374 28.457 28.4574C28.0372 28.8774 27.6374 29.1374 27.0772 29.3551C26.6544 29.5194 26.0189 29.7149 24.8489 29.7684C23.5837 29.8261 23.2042 29.8383 20 29.8383C16.7956 29.8383 16.4161 29.8261 15.1509 29.7684C13.9809 29.7149 13.3454 29.5196 12.9226 29.3551C12.3626 29.1374 11.9628 28.8774 11.5428 28.4574C11.123 28.0376 10.8628 27.6378 10.6451 27.0776C10.4808 26.6548 10.2852 26.0193 10.2318 24.8493C10.1741 23.5839 10.1619 23.2044 10.1619 20.0004C10.1619 16.7962 10.1741 16.4167 10.2318 15.1512C10.2852 13.9812 10.4806 13.3458 10.6451 12.923C10.8628 12.3629 11.1228 11.9632 11.5428 11.5432C11.9626 11.1232 12.3624 10.8631 12.9226 10.6454C13.3454 10.4812 13.9809 10.2856 15.1509 10.2322C16.4163 10.1744 16.7958 10.1623 20 10.1623ZM20 8C16.7411 8 16.3323 8.01388 15.0524 8.07219C13.7752 8.1305 12.9028 8.33337 12.1396 8.63C11.3504 8.93656 10.6812 9.347 10.0141 10.0141C9.347 10.6812 8.93656 11.3504 8.63 12.1396C8.33337 12.9029 8.1305 13.7752 8.07219 15.0524C8.01388 16.3323 8 16.7411 8 20C8 23.2589 8.01388 23.6677 8.07219 24.9476C8.1305 26.2248 8.33337 27.0971 8.63 27.8604C8.93656 28.6496 9.347 29.3188 10.0141 29.9859C10.6812 30.653 11.3504 31.0632 12.1396 31.37C12.9029 31.6666 13.7752 31.8695 15.0524 31.9278C16.3323 31.9861 16.7411 32 20 32C23.2589 32 23.6677 31.9861 24.9476 31.9278C26.2248 31.8695 27.0971 31.6666 27.8604 31.37C28.6496 31.0632 29.3188 30.653 29.9859 29.9859C30.653 29.3188 31.0632 28.6496 31.37 27.8604C31.6666 27.0971 31.8695 26.2248 31.9278 24.9476C31.9861 23.6677 32 23.2589 32 20C32 16.7411 31.9861 16.3323 31.9278 15.0524C31.8695 13.7752 31.6666 12.9029 31.37 12.1396C31.0632 11.3504 30.653 10.6812 29.9859 10.0141C29.3188 9.347 28.6496 8.93675 27.8604 8.63C27.0971 8.33337 26.2248 8.1305 24.9476 8.07219C23.6677 8.01388 23.2589 8 20 8Z" fill="url(#paint0_radial_463_1796)"/>
</g>
<defs>
<radialGradient id="paint0_radial_463_1796" cx="0" cy="0" r="1" gradientUnits="userSpaceOnUse" gradientTransform="translate(11.5833 32.0833) scale(30.666)">
<stop stop-color="#FFB140"/>
<stop offset="0.2559" stop-color="#FF5445"/>
<stop offset="0.599" stop-color="#FC2B82"/>
<stop offset="1" stop-color="#8E40B7"/>
</radialGradient>
<clipPath id="clip0_463_1796">
<rect width="24" height="24" fill="white" transform="translate(8 8)"/>
</clipPath>
</defs>
</svg>
