<svg width="40" height="40" viewBox="0 0 40 40" fill="none" xmlns="http://www.w3.org/2000/svg">
<path d="M8.99789 12.2071C11.6481 12.2071 13.7966 10.4868 13.7966 8.36477C13.7966 6.24272 11.6481 4.52246 8.99789 4.52246C6.34766 4.52246 4.19922 6.24272 4.19922 8.36477C4.19922 10.4868 6.34766 12.2071 8.99789 12.2071Z" stroke="#2F2F2F" stroke-miterlimit="10" stroke-linecap="round" stroke-linejoin="round"/>
<path d="M17.793 6.60352H28.69" stroke="#2F2F2F" stroke-miterlimit="10" stroke-linecap="round" stroke-linejoin="round"/>
<path d="M17.793 10.2051H28.69" stroke="#2F2F2F" stroke-miterlimit="10" stroke-linecap="round" stroke-linejoin="round"/>
<path d="M39.9889 1.56038L32.9909 2.9212L8.09776 1.00004C8.09776 1.00004 0 0.91999 0 8.04428C0 15.1686 7.69787 15.7289 7.69787 15.7289L33.2908 13.7277L38.2894 14.1279C38.2894 14.1279 37.5896 12.3669 38.8892 8.36447C40.1889 4.36206 39.9889 1.56038 39.9889 1.56038Z" stroke="#2F2F2F" stroke-width="1.5" stroke-miterlimit="10" stroke-linecap="round" stroke-linejoin="round"/>
<path d="M32.9902 2.9209V13.8075" stroke="#2F2F2F" stroke-miterlimit="10" stroke-linecap="round" stroke-linejoin="round"/>
<path d="M8.19727 15.7293L10.1967 28.617C10.1967 28.617 10.6966 32.4593 15.1953 31.8189C19.6941 31.1786 18.1945 27.1761 18.1945 27.1761L16.295 15.0889" stroke="#2F2F2F" stroke-width="1.5" stroke-miterlimit="10" stroke-linecap="round" stroke-linejoin="round"/>
<path d="M16.7949 18.2908L20.4939 17.8105V20.6923L21.7935 23.0937L17.6947 23.7341" stroke="#2F2F2F" stroke-miterlimit="10" stroke-linecap="round" stroke-linejoin="round"/>
<path d="M15.1934 31.8184C15.1934 31.8184 16.1931 42.3047 28.1898 40.8638" stroke="#2F2F2F" stroke-miterlimit="10" stroke-linecap="round" stroke-linejoin="round"/>
</svg>
