<svg width="40" height="40" viewBox="0 0 40 40" fill="none" xmlns="http://www.w3.org/2000/svg">
<path d="M28.75 8.47971e-08C30.3368 -0.000279171 31.8643 0.689191 33.0226 1.92856C34.181 3.16793 34.8834 4.86439 34.9875 6.67385L35 7.14239V14.4276C36.3398 14.7403 37.5529 15.5464 38.4533 16.7225C39.3537 17.8985 39.8918 19.3796 39.985 20.9386L40 21.4272V38.5689C40.0006 38.9259 39.8842 39.2701 39.6737 39.5339C39.4633 39.7977 39.174 39.9619 38.8629 39.9942C38.5519 40.0264 38.2415 39.9244 37.9929 39.7082C37.7444 39.492 37.5756 39.1773 37.52 38.826L37.5 38.5689V31.4265H2.5V38.5689C2.50058 38.9259 2.38418 39.2701 2.17373 39.5339C1.96328 39.7977 1.67403 39.9619 1.36295 39.9942C1.05186 40.0264 0.741476 39.9244 0.492921 39.7082C0.244366 39.492 0.0756506 39.1773 0.0199999 38.826L1.30285e-07 38.5689V21.4272C-0.000293938 19.7806 0.497229 18.1845 1.40837 16.909C2.31951 15.6335 3.58829 14.7569 5 14.4276V7.14239C4.99976 5.32903 5.60308 3.58345 6.6876 2.25972C7.77212 0.935997 9.25662 0.133242 10.84 0.0142852L11.25 8.47971e-08H28.75ZM33.75 17.1417H6.25C5.31818 17.1417 4.41974 17.5381 3.72973 18.2538C3.03972 18.9694 2.60758 19.953 2.5175 21.0129L2.5 21.4272V28.5695H37.5V21.4272C37.5 20.3623 37.1531 19.3356 36.5269 18.547C35.9007 17.7585 35.04 17.2647 34.1125 17.1617L33.75 17.1417ZM28.75 2.85695H11.25C10.3178 2.85701 9.41902 3.25384 8.72895 3.97008C8.03888 4.68631 7.60699 5.6706 7.5175 6.73099L7.5 7.14239V14.2848H10V12.8563C10 12.4774 10.1317 12.1141 10.3661 11.8462C10.6005 11.5783 10.9185 11.4278 11.25 11.4278H17.5C17.8315 11.4278 18.1495 11.5783 18.3839 11.8462C18.6183 12.1141 18.75 12.4774 18.75 12.8563V14.2848H21.25V12.8563C21.25 12.4774 21.3817 12.1141 21.6161 11.8462C21.8505 11.5783 22.1685 11.4278 22.5 11.4278H28.75C29.0815 11.4278 29.3995 11.5783 29.6339 11.8462C29.8683 12.1141 30 12.4774 30 12.8563V14.2848H32.5V7.14239C32.5 6.07753 32.1531 5.0508 31.5269 4.26227C30.9006 3.47374 30.04 2.97989 29.1125 2.87695L28.75 2.85695Z" fill="#2F2F2F"/>
</svg>
