<svg width="42" height="42" viewBox="0 0 42 42" fill="none" xmlns="http://www.w3.org/2000/svg">
<path d="M37.9231 1H4.07692C3.26087 1 2.47824 1.32417 1.90121 1.90121C1.32417 2.47824 1 3.26087 1 4.07692V19.4615C1 20.2776 1.32417 21.0602 1.90121 21.6373C2.47824 22.2143 3.26087 22.5385 4.07692 22.5385H37.9231C38.7391 22.5385 39.5218 22.2143 40.0988 21.6373C40.6758 21.0602 41 20.2776 41 19.4615V4.07692C41 3.26087 40.6758 2.47824 40.0988 1.90121C39.5218 1.32417 38.7391 1 37.9231 1Z" stroke="black" stroke-width="1.42857" stroke-linecap="round" stroke-linejoin="round"/>
<path d="M33.3081 22.5384V16.3845C33.3081 15.5685 32.984 14.7859 32.4069 14.2088C31.8299 13.6318 31.0473 13.3076 30.2312 13.3076H11.7697C10.9536 13.3076 10.171 13.6318 9.59397 14.2088C9.01693 14.7859 8.69276 15.5685 8.69276 16.3845V22.5384M7.1543 37.923H7.46199C8.60446 37.923 9.70014 37.4692 10.508 36.6613C11.3158 35.8535 11.7697 34.7578 11.7697 33.6153V30.2307M34.8466 37.923H34.5389C33.3964 37.923 32.3008 37.4692 31.4929 36.6613C30.6851 35.8535 30.2312 34.7578 30.2312 33.6153V30.2307M21.0005 40.9999V30.2307" stroke="black" stroke-width="1.42857" stroke-linecap="round" stroke-linejoin="round"/>
</svg>
