<svg width="32" height="32" viewBox="0 0 32 32" fill="none" xmlns="http://www.w3.org/2000/svg">
<g clip-path="url(#clip0_666_779)">
<path d="M10.8827 6.00002C11.0289 5.99917 11.1738 6.02719 11.3092 6.08248C11.4445 6.13776 11.5676 6.21921 11.6714 6.32217C11.7755 6.42544 11.8582 6.5483 11.9146 6.68367C11.971 6.81903 12 6.96423 12 7.11088C12 7.25752 11.971 7.40272 11.9146 7.53809C11.8582 7.67345 11.7755 7.79631 11.6714 7.89958L3.56215 15.9977L11.6714 24.0959C11.8806 24.3051 11.9981 24.5888 11.9981 24.8846C11.9981 25.0311 11.9693 25.1761 11.9132 25.3114C11.8571 25.4468 11.775 25.5697 11.6714 25.6733C11.5678 25.7769 11.4449 25.859 11.3095 25.9151C11.1742 25.9711 11.0292 26 10.8827 26C10.5869 26 10.3032 25.8825 10.094 25.6733L1.20713 16.7864C1.10301 16.6832 1.02037 16.5603 0.963973 16.4249C0.907576 16.2896 0.878541 16.1444 0.878541 15.9977C0.878541 15.8511 0.907576 15.7059 0.963973 15.5705C1.02037 15.4352 1.10301 15.3123 1.20713 15.209L10.094 6.32217C10.1978 6.21921 10.3209 6.13776 10.4562 6.08248C10.5916 6.02719 10.7365 5.99917 10.8827 6.00002Z" fill="#2F2F2F"/>
</g>
<defs>
<clipPath id="clip0_666_779">
<rect width="32" height="32" fill="white" transform="translate(32 32) rotate(180)"/>
</clipPath>
</defs>
</svg>
