<svg width="32" height="32" viewBox="0 0 32 32" fill="none" xmlns="http://www.w3.org/2000/svg">
<path fill-rule="evenodd" clip-rule="evenodd" d="M16 2C9.929 2 5 6.929 5 13C5 15.778 6.654 19.081 8.699 22.019C11.638 26.243 15.312 29.726 15.312 29.726C15.698 30.091 16.302 30.091 16.688 29.726C16.688 29.726 20.362 26.243 23.301 22.019C25.346 19.081 27 15.778 27 13C27 6.929 22.071 2 16 2ZM16 7.5C12.964 7.5 10.5 9.964 10.5 13C10.5 16.036 12.964 18.5 16 18.5C19.036 18.5 21.5 16.036 21.5 13C21.5 9.964 19.036 7.5 16 7.5Z" fill="#2F2F2F"/>
</svg>
