<svg width="20" height="20" viewBox="0 0 20 20" fill="none" xmlns="http://www.w3.org/2000/svg">
<g clip-path="url(#clip0_122_164)">
<path d="M20 9.37499C20.0001 9.97288 19.8287 10.5583 19.5061 11.0616C19.1835 11.565 18.7233 11.9653 18.18 12.215C17.9623 11.8329 17.6884 11.4857 17.3675 11.185C17.8476 11.0542 18.256 10.7381 18.503 10.3062C18.7499 9.87424 18.8152 9.36191 18.6844 8.88187C18.5536 8.40183 18.2375 7.9934 17.8056 7.74644C17.3737 7.49948 16.8613 7.43421 16.3813 7.56499C16.2949 7.58841 16.2045 7.593 16.1162 7.57844C16.0278 7.56389 15.9437 7.53054 15.8694 7.48064C15.7951 7.43075 15.7323 7.36547 15.6854 7.28923C15.6385 7.21299 15.6086 7.12757 15.5975 7.03874C15.5091 6.3229 15.2162 5.64774 14.7538 5.09419C14.2914 4.54064 13.6791 4.13218 12.9904 3.9178C12.3018 3.70341 11.5659 3.69218 10.8709 3.88545C10.176 4.07873 9.55163 4.46831 9.07254 5.00749C8.53841 4.98298 8.00324 5.01989 7.47754 5.11749C7.9569 4.23476 8.6909 3.51678 9.584 3.05702C10.4771 2.59726 11.4879 2.41701 12.4849 2.53974C13.4819 2.66248 14.4188 3.0825 15.1737 3.74515C15.9286 4.40779 16.4666 5.28235 16.7175 6.25499C17.1406 6.23365 17.5635 6.29851 17.9607 6.44566C18.3579 6.5928 18.721 6.81915 19.028 7.11096C19.335 7.40276 19.5795 7.75393 19.7466 8.14313C19.9137 8.53233 19.9999 8.95144 20 9.37499Z" fill="#2F2F2F"/>
<path d="M8.75003 6.25C10.1338 6.24973 11.4692 6.75957 12.5007 7.68201C13.5322 8.60445 14.1875 9.87476 14.3413 11.25H14.375C15.2038 11.25 15.9987 11.5792 16.5847 12.1653C17.1708 12.7513 17.5 13.5462 17.5 14.375C17.5 15.2038 17.1708 15.9987 16.5847 16.5847C15.9987 17.1708 15.2038 17.5 14.375 17.5H3.75003C2.78173 17.5007 1.85067 17.1269 1.15177 16.4567C0.452857 15.7865 0.0402739 14.872 0.000379483 13.9045C-0.0395149 12.937 0.296373 11.9916 0.937732 11.2662C1.57909 10.5407 2.4762 10.0915 3.44128 10.0125C3.82756 8.9128 4.54578 7.96017 5.49673 7.28619C6.44769 6.61222 7.58446 6.25015 8.75003 6.25ZM13.125 11.875C13.1258 10.8094 12.7376 9.78016 12.0333 8.98047C11.329 8.18078 10.3571 7.66561 9.29997 7.53167C8.24282 7.39772 7.17313 7.6542 6.29167 8.25297C5.41021 8.85175 4.77758 9.75164 4.51253 10.7837C4.47666 10.9234 4.39359 11.0464 4.2774 11.1319C4.16122 11.2173 4.01905 11.2599 3.87503 11.2525C3.54298 11.2378 3.21132 11.2894 2.89946 11.4043C2.58759 11.5193 2.30179 11.6953 2.05875 11.922C1.81571 12.1488 1.62033 12.4217 1.48403 12.7248C1.34772 13.028 1.27324 13.3553 1.26493 13.6875C1.25662 14.0198 1.31465 14.3504 1.43562 14.66C1.5566 14.9696 1.7381 15.2519 1.96949 15.4905C2.20089 15.7291 2.47754 15.9192 2.78327 16.0496C3.08899 16.18 3.41766 16.2481 3.75003 16.25H14.375C14.6409 16.2494 14.9036 16.1922 15.1457 16.0824C15.3878 15.9725 15.6037 15.8124 15.7792 15.6126C15.9547 15.4129 16.0857 15.1782 16.1635 14.924C16.2414 14.6698 16.2643 14.4019 16.2307 14.1382C16.1971 13.8744 16.1078 13.6209 15.9688 13.3943C15.8297 13.1677 15.644 12.9733 15.4241 12.8239C15.2042 12.6745 14.955 12.5736 14.6931 12.5279C14.4312 12.4822 14.1626 12.4927 13.905 12.5588C13.8119 12.5826 13.7146 12.5846 13.6206 12.5648C13.5266 12.5449 13.4384 12.5036 13.363 12.4441C13.2875 12.3846 13.2268 12.3085 13.1855 12.2217C13.1443 12.135 13.1236 12.0398 13.125 11.9438V11.875Z" fill="#2F2F2F"/>
</g>
<defs>
<clipPath id="clip0_122_164">
<rect width="20" height="20" fill="white"/>
</clipPath>
</defs>
</svg>
