<svg width="23" height="26" viewBox="0 0 23 26" fill="none" xmlns="http://www.w3.org/2000/svg">
<path d="M0 18.9811C0 20.1741 0.560625 21.2452 1.4375 21.9909V24.4042C1.4375 25.1499 2.08438 25.76 2.875 25.76H4.3125C5.10313 25.76 5.75 25.1499 5.75 24.4042V23.0484H17.25V24.4042C17.25 25.1499 17.8969 25.76 18.6875 25.76H20.125C20.9156 25.76 21.5625 25.1499 21.5625 24.4042V21.9909C22.4394 21.2452 23 20.1741 23 18.9811V5.42316C23 0.677895 17.8538 0 11.5 0C5.14625 0 0 0.677895 0 5.42316V18.9811ZM5.03125 20.3368C3.83813 20.3368 2.875 19.4285 2.875 18.3032C2.875 17.1779 3.83813 16.2695 5.03125 16.2695C6.22438 16.2695 7.1875 17.1779 7.1875 18.3032C7.1875 19.4285 6.22438 20.3368 5.03125 20.3368ZM17.9688 20.3368C16.7756 20.3368 15.8125 19.4285 15.8125 18.3032C15.8125 17.1779 16.7756 16.2695 17.9688 16.2695C19.1619 16.2695 20.125 17.1779 20.125 18.3032C20.125 19.4285 19.1619 20.3368 17.9688 20.3368ZM20.125 12.2021H2.875V5.42316H20.125V12.2021Z" fill="#2F2F2F"/>
</svg>
