<svg width="20" height="20" viewBox="0 0 20 20" fill="none" xmlns="http://www.w3.org/2000/svg">
<path d="M10.834 10.834C9.80273 10.834 8.91992 10.4668 8.18555 9.73242C7.45117 8.99805 7.08398 8.11523 7.08398 7.08398C7.08398 6.05273 7.45117 5.16992 8.18555 4.43555C8.91992 3.70117 9.80273 3.33398 10.834 3.33398C11.8652 3.33398 12.748 3.70117 13.4824 4.43555C14.2168 5.16992 14.584 6.05273 14.584 7.08398C14.584 8.11523 14.2168 8.99805 13.4824 9.73242C12.748 10.4668 11.8652 10.834 10.834 10.834ZM3.33398 18.334V15.709C3.33398 15.1777 3.47086 14.6896 3.74461 14.2446C4.01836 13.7996 4.38148 13.4596 4.83398 13.2246C5.80273 12.7402 6.78711 12.3771 7.78711 12.1352C8.78711 11.8934 9.80273 11.7721 10.834 11.7715C11.8652 11.7709 12.8809 11.8921 13.8809 12.1352C14.8809 12.3784 15.8652 12.7415 16.834 13.2246C17.2871 13.459 17.6505 13.799 17.9243 14.2446C18.198 14.6902 18.3346 15.1784 18.334 15.709V18.334H3.33398Z" fill="#AFAFAF"/>
</svg>
