<svg width="96" height="16" viewBox="0 0 96 16" fill="none" xmlns="http://www.w3.org/2000/svg">
<g clip-path="url(#clip0_378_812)">
<path fill-rule="evenodd" clip-rule="evenodd" d="M82.866 14.8502C82.788 15.2942 83.226 15.6412 83.612 15.4432L88.002 13.1872L92.391 15.4432C92.777 15.6412 93.215 15.2942 93.137 14.8512L92.307 10.1212L95.83 6.76517C96.159 6.45117 95.988 5.87717 95.547 5.81517L90.649 5.11917L88.465 0.792167C88.4234 0.704456 88.3578 0.63035 88.2757 0.57846C88.1937 0.526569 88.0986 0.499023 88.0015 0.499023C87.9044 0.499023 87.8093 0.526569 87.7273 0.57846C87.6452 0.63035 87.5796 0.704456 87.538 0.792167L85.354 5.12017L80.456 5.81617C80.015 5.87817 79.844 6.45217 80.173 6.76617L83.696 10.1222L82.866 14.8522V14.8502Z" fill="#FFEC3E"/>
</g>
<g clip-path="url(#clip1_378_812)">
<path fill-rule="evenodd" clip-rule="evenodd" d="M62.866 14.8502C62.788 15.2942 63.226 15.6412 63.612 15.4432L68.002 13.1872L72.391 15.4432C72.777 15.6412 73.215 15.2942 73.137 14.8512L72.307 10.1212L75.83 6.76517C76.159 6.45117 75.988 5.87717 75.547 5.81517L70.649 5.11917L68.465 0.792167C68.4234 0.704456 68.3578 0.63035 68.2757 0.57846C68.1937 0.526569 68.0986 0.499023 68.0015 0.499023C67.9044 0.499023 67.8093 0.526569 67.7273 0.57846C67.6452 0.63035 67.5796 0.704456 67.538 0.792167L65.354 5.12017L60.456 5.81617C60.015 5.87817 59.844 6.45217 60.173 6.76617L63.696 10.1222L62.866 14.8522V14.8502Z" fill="#FFEC3E"/>
</g>
<g clip-path="url(#clip2_378_812)">
<path fill-rule="evenodd" clip-rule="evenodd" d="M42.866 14.8502C42.788 15.2942 43.226 15.6412 43.612 15.4432L48.002 13.1872L52.391 15.4432C52.777 15.6412 53.215 15.2942 53.137 14.8512L52.307 10.1212L55.83 6.76517C56.159 6.45117 55.988 5.87717 55.547 5.81517L50.649 5.11917L48.465 0.792167C48.4234 0.704456 48.3578 0.63035 48.2757 0.57846C48.1937 0.526569 48.0986 0.499023 48.0015 0.499023C47.9044 0.499023 47.8093 0.526569 47.7273 0.57846C47.6452 0.63035 47.5796 0.704456 47.538 0.792167L45.354 5.12017L40.456 5.81617C40.015 5.87817 39.844 6.45217 40.173 6.76617L43.696 10.1222L42.866 14.8522V14.8502Z" fill="#FFEC3E"/>
</g>
<g clip-path="url(#clip3_378_812)">
<path fill-rule="evenodd" clip-rule="evenodd" d="M22.866 14.8502C22.788 15.2942 23.226 15.6412 23.612 15.4432L28.002 13.1872L32.391 15.4432C32.777 15.6412 33.215 15.2942 33.137 14.8512L32.307 10.1212L35.83 6.76517C36.159 6.45117 35.988 5.87717 35.547 5.81517L30.649 5.11917L28.465 0.792167C28.4234 0.704456 28.3578 0.63035 28.2757 0.57846C28.1937 0.526569 28.0986 0.499023 28.0015 0.499023C27.9044 0.499023 27.8093 0.526569 27.7273 0.57846C27.6452 0.63035 27.5796 0.704456 27.538 0.792167L25.354 5.12017L20.456 5.81617C20.015 5.87817 19.844 6.45217 20.173 6.76617L23.696 10.1222L22.866 14.8522V14.8502Z" fill="#FFEC3E"/>
</g>
<g clip-path="url(#clip4_378_812)">
<path fill-rule="evenodd" clip-rule="evenodd" d="M2.866 14.8502C2.788 15.2942 3.226 15.6412 3.612 15.4432L8.002 13.1872L12.391 15.4432C12.777 15.6412 13.215 15.2942 13.137 14.8512L12.307 10.1212L15.83 6.76517C16.159 6.45117 15.988 5.87717 15.547 5.81517L10.649 5.11917L8.465 0.792167C8.42339 0.704456 8.35775 0.63035 8.27571 0.57846C8.19366 0.526569 8.09857 0.499023 8.0015 0.499023C7.90442 0.499023 7.80933 0.526569 7.72729 0.57846C7.64524 0.63035 7.5796 0.704456 7.538 0.792167L5.354 5.12017L0.455996 5.81617C0.0149962 5.87817 -0.156004 6.45217 0.172996 6.76617L3.696 10.1222L2.866 14.8522V14.8502Z" fill="#FFEC3E"/>
</g>
<defs>
<clipPath id="clip0_378_812">
<rect width="16" height="16" fill="white" transform="translate(80)"/>
</clipPath>
<clipPath id="clip1_378_812">
<rect width="16" height="16" fill="white" transform="translate(60)"/>
</clipPath>
<clipPath id="clip2_378_812">
<rect width="16" height="16" fill="white" transform="translate(40)"/>
</clipPath>
<clipPath id="clip3_378_812">
<rect width="16" height="16" fill="white" transform="translate(20)"/>
</clipPath>
<clipPath id="clip4_378_812">
<rect width="16" height="16" fill="white"/>
</clipPath>
</defs>
</svg>
