<svg width="20" height="20" viewBox="0 0 20 20" fill="none" xmlns="http://www.w3.org/2000/svg">
<path d="M18.8531 14.4265C18.8531 14.8147 18.7439 15.1745 18.569 15.4911L12.9784 9.23604L18.5084 4.39781C18.7235 4.73919 18.8531 5.1402 18.8531 5.57354V14.4265ZM9.99999 10.3718L17.6948 3.63903C17.379 3.46617 17.0234 3.36016 16.6399 3.36016H3.36012C2.97608 3.36016 2.62039 3.46617 2.3059 3.63903L9.99999 10.3718ZM12.1452 9.96446L10.3641 11.5239C10.2599 11.6147 10.1302 11.66 9.99999 11.66C9.86972 11.66 9.73999 11.6147 9.63581 11.5239L7.85427 9.96438L2.19296 16.2994C2.5323 16.5123 2.92999 16.6398 3.36008 16.6398H16.6399C17.0699 16.6398 17.4678 16.5123 17.807 16.2994L12.1452 9.96446ZM1.49163 4.39777C1.27654 4.73915 1.14685 5.14016 1.14685 5.57354V14.4265C1.14685 14.8147 1.25552 15.1745 1.43109 15.4911L7.02102 9.23498L1.49163 4.39777Z" fill="#AFAFAF"/>
</svg>
