<svg width="24" height="24" viewBox="0 0 24 24" fill="none" xmlns="http://www.w3.org/2000/svg">
<g clip-path="url(#clip0_247_1409)">
<path d="M20.2052 11.1493L19.042 4.64643C19.0093 4.46475 18.9172 4.30072 18.7814 4.18269C18.6457 4.06466 18.4748 4.00004 18.2985 4H5.70152C5.52514 4.00004 5.35432 4.06466 5.21856 4.18269C5.08281 4.30072 4.99065 4.46475 4.95801 4.64643L3.7948 11.1493C3.28059 11.2967 2.82664 11.6166 2.50248 12.0602C2.17831 12.5038 2.00181 13.0466 2 13.6053V17.1244C1.99999 17.2285 2.01954 17.3316 2.05754 17.4277C2.09554 17.5239 2.15125 17.6113 2.22147 17.6849C2.29169 17.7585 2.37506 17.8169 2.46681 17.8567C2.55856 17.8966 2.6569 17.9171 2.75621 17.9171H3.2605V18.6659C3.2605 19.2849 3.49511 19.8786 3.91272 20.3163C4.33034 20.7541 4.89674 21 5.48733 21C6.07792 21 6.64432 20.7541 7.06193 20.3163C7.47954 19.8786 7.71416 19.2849 7.71416 18.6659V17.9171H16.2858V18.6659C16.2858 19.2849 16.5204 19.8786 16.9381 20.3163C17.3557 20.7541 17.9221 21 18.5127 21C19.1032 21 19.6697 20.7541 20.0873 20.3163C20.5049 19.8786 20.7395 19.2849 20.7395 18.6659V17.9171H21.2438C21.3431 17.9171 21.4414 17.8966 21.5332 17.8567C21.6249 17.8169 21.7083 17.7585 21.7785 17.6849C21.8488 17.6113 21.9045 17.5239 21.9425 17.4278C21.9805 17.3316 22 17.2285 22 17.1244V13.6053C21.9982 13.0466 21.8217 12.5038 21.4975 12.0602C21.1734 11.6166 20.7194 11.2967 20.2052 11.1493ZM6.11753 15.8031C5.86823 15.8031 5.62452 15.7257 5.41723 15.5805C5.20994 15.4353 5.04837 15.2289 4.95297 14.9875C4.85756 14.7461 4.8326 14.4804 4.88124 14.2241C4.92988 13.9678 5.04993 13.7324 5.22621 13.5476C5.4025 13.3628 5.6271 13.237 5.87162 13.186C6.11614 13.135 6.36958 13.1612 6.59991 13.2612C6.83024 13.3612 7.02711 13.5306 7.16561 13.7478C7.30412 13.9651 7.37805 14.2206 7.37805 14.4819C7.37805 14.6554 7.34545 14.8272 7.28211 14.9875C7.21876 15.1478 7.12591 15.2935 7.00886 15.4162C6.89181 15.5389 6.75285 15.6362 6.59992 15.7026C6.44698 15.769 6.28307 15.8031 6.11753 15.8031ZM5.35233 11.0467L6.32931 5.58533H17.6707L18.6477 11.0467H5.35233ZM17.8823 15.8031C17.633 15.8031 17.3893 15.7257 17.182 15.5805C16.9748 15.4353 16.8132 15.2289 16.7178 14.9875C16.6224 14.7461 16.5974 14.4804 16.6461 14.2241C16.6947 13.9678 16.8147 13.7324 16.991 13.5476C17.1673 13.3628 17.3919 13.237 17.6364 13.186C17.8809 13.135 18.1344 13.1612 18.3647 13.2612C18.5951 13.3612 18.7919 13.5306 18.9304 13.7478C19.0689 13.9651 19.1429 14.2206 19.1429 14.4819C19.1429 14.6554 19.1103 14.8272 19.0469 14.9875C18.9836 15.1478 18.8907 15.2935 18.7737 15.4162C18.6566 15.5389 18.5177 15.6362 18.3647 15.7026C18.2118 15.769 18.0479 15.8031 17.8823 15.8031Z" fill="white"/>
</g>
<defs>
<clipPath id="clip0_247_1409">
<rect width="24" height="24" fill="white"/>
</clipPath>
</defs>
</svg>
