<svg width="18" height="19" viewBox="0 0 18 19" fill="none" xmlns="http://www.w3.org/2000/svg">
<path d="M1.616 18.115C1.15533 18.115 0.771 17.961 0.463 17.653C0.155 17.345 0.000666667 16.9607 0 16.5V3.73001C0 3.27001 0.154333 2.88601 0.463 2.57801C0.771666 2.27001 1.156 2.11568 1.616 2.11501H3.385V-0.11499H4.462V2.11501H11.616V-0.11499H12.616V2.11501H14.385C14.845 2.11501 15.2293 2.26934 15.538 2.57801C15.8467 2.88668 16.0007 3.27101 16 3.73101V8.73101H15V7.73101H1V16.5C1 16.6533 1.064 16.7943 1.192 16.923C1.32 17.0517 1.461 17.1157 1.615 17.115H7.846V18.115H1.616ZM10.231 18.115V15.905L15.564 10.598C15.6627 10.5113 15.765 10.448 15.871 10.408C15.9777 10.3667 16.0843 10.346 16.191 10.346C16.301 10.346 16.4123 10.3673 16.525 10.41C16.6383 10.4533 16.7377 10.518 16.823 10.604L17.748 11.548C17.83 11.6467 17.8927 11.7493 17.936 11.856C17.9787 11.962 18 12.0683 18 12.175C18 12.2817 17.9827 12.389 17.948 12.497C17.9133 12.605 17.8467 12.7083 17.748 12.807L12.44 18.115H10.231ZM16.191 13.13L17.116 12.174L16.191 11.231L15.241 12.181L16.191 13.13Z" fill="#AFAFAF"/>
</svg>
