<svg width="32" height="32" viewBox="0 0 32 32" fill="none" xmlns="http://www.w3.org/2000/svg">
<g clip-path="url(#clip0_378_900)">
<path d="M30.33 22.7061C30.33 23.3272 30.1553 23.903 29.8755 24.4095L20.9305 14.4014L29.7785 6.66023C30.1227 7.20644 30.33 7.84806 30.33 8.5414V22.7061ZM16.165 16.2186L28.4767 5.44619C27.9715 5.16961 27.4025 5 26.7888 5H5.54123C4.92676 5 4.35767 5.16961 3.85449 5.44619L16.165 16.2186ZM19.5974 15.5669L16.7476 18.062C16.5809 18.2072 16.3734 18.2797 16.165 18.2797C15.9566 18.2797 15.749 18.2072 15.5823 18.062L12.7319 15.5668L3.67378 25.7028C4.21672 26.0434 4.85302 26.2475 5.54117 26.2475H26.7888C27.4769 26.2475 28.1135 26.0434 28.6562 25.7028L19.5974 15.5669ZM2.55164 6.66017C2.20751 7.20638 2 7.848 2 8.5414V22.7062C2 23.3273 2.17388 23.903 2.45478 24.4096L11.3987 14.3997L2.55164 6.66017Z" fill="#2F2F2F"/>
</g>
<defs>
<clipPath id="clip0_378_900">
<rect width="32" height="32" fill="white"/>
</clipPath>
</defs>
</svg>
