<svg width="32" height="32" viewBox="0 0 32 32" fill="none" xmlns="http://www.w3.org/2000/svg">
<g clip-path="url(#clip0_378_917)">
<path d="M4.00003 22.8747C4.00003 24.1869 4.58154 25.3648 5.49108 26.1849V28.8389C5.49108 29.659 6.16206 30.33 6.98214 30.33H8.47319C9.29327 30.33 9.96424 29.659 9.96424 28.8389V27.3479H21.8927V28.8389C21.8927 29.659 22.5636 30.33 23.3837 30.33H24.8748C25.6948 30.33 26.3658 29.659 26.3658 28.8389V26.1849C27.2754 25.3648 27.8569 24.1869 27.8569 22.8747V7.96421C27.8569 2.74553 22.5189 2 15.9285 2C9.338 2 4.00003 2.74553 4.00003 7.96421V22.8747ZM9.21872 24.3658C7.98114 24.3658 6.98214 23.3668 6.98214 22.1292C6.98214 20.8916 7.98114 19.8926 9.21872 19.8926C10.4563 19.8926 11.4553 20.8916 11.4553 22.1292C11.4553 23.3668 10.4563 24.3658 9.21872 24.3658ZM22.6382 24.3658C21.4006 24.3658 20.4016 23.3668 20.4016 22.1292C20.4016 20.8916 21.4006 19.8926 22.6382 19.8926C23.8758 19.8926 24.8748 20.8916 24.8748 22.1292C24.8748 23.3668 23.8758 24.3658 22.6382 24.3658ZM24.8748 15.4195H6.98214V7.96421H24.8748V15.4195Z" fill="black"/>
</g>
<defs>
<clipPath id="clip0_378_917">
<rect width="32" height="32" fill="white"/>
</clipPath>
</defs>
</svg>
