<svg width="32" height="32" viewBox="0 0 32 32" fill="none" xmlns="http://www.w3.org/2000/svg">
<g clip-path="url(#clip0_169_422)">
<path d="M13.1173 26C12.9711 26.0008 12.8262 25.9728 12.6908 25.9175C12.5555 25.8622 12.4324 25.7808 12.3286 25.6778C12.2245 25.5746 12.1418 25.4517 12.0854 25.3163C12.029 25.181 12 25.0358 12 24.8891C12 24.7425 12.029 24.5973 12.0854 24.4619C12.1418 24.3265 12.2245 24.2037 12.3286 24.1004L20.4379 16.0023L12.3286 7.90411C12.1194 7.69493 12.0019 7.41123 12.0019 7.1154C12.0019 6.96893 12.0307 6.82388 12.0868 6.68856C12.1429 6.55323 12.225 6.43027 12.3286 6.32669C12.4322 6.22312 12.5551 6.14096 12.6905 6.08491C12.8258 6.02885 12.9708 6 13.1173 6C13.4131 6 13.6968 6.11752 13.906 6.32669L22.7929 15.2136C22.897 15.3168 22.9796 15.4397 23.036 15.5751C23.0924 15.7104 23.1215 15.8556 23.1215 16.0023C23.1215 16.1489 23.0924 16.2941 23.036 16.4295C22.9796 16.5648 22.897 16.6877 22.7929 16.791L13.906 25.6778C13.8022 25.7808 13.6791 25.8622 13.5438 25.9175C13.4084 25.9728 13.2635 26.0008 13.1173 26Z" fill="#2F2F2F"/>
</g>
<defs>
<clipPath id="clip0_169_422">
<rect width="32" height="32" fill="white"/>
</clipPath>
</defs>
</svg>
