<svg width="40" height="40" viewBox="0 0 40 40" fill="none" xmlns="http://www.w3.org/2000/svg">
<path d="M3.24778 40C2.36222 40 1.59963 39.5886 0.96 38.7657C0.32 37.9433 0 36.9629 0 35.8243V4.17572C0 3.03714 0.32 2.05667 0.96 1.23429C1.59963 0.411431 2.36222 0 3.24778 0H36.7522C37.6378 0 38.4004 0.411431 39.04 1.23429C39.68 2.05667 40 3.03714 40 4.17572V35.8243C40 36.9629 39.68 37.9433 39.04 38.7657C38.4004 39.5886 37.6378 40 36.7522 40H3.24778ZM3.24778 37.5821H36.7522C37.1511 37.5821 37.4787 37.4174 37.735 37.0879C37.9913 36.7583 38.1194 36.3371 38.1194 35.8243V4.17572C38.1194 3.66286 37.9913 3.24167 37.735 2.91214C37.4787 2.58262 37.1511 2.41786 36.7522 2.41786H3.24778C2.84889 2.41786 2.5213 2.58262 2.265 2.91214C2.0087 3.24167 1.88056 3.66286 1.88056 4.17572V35.8243C1.88056 36.3371 2.0087 36.7583 2.265 37.0879C2.5213 37.4174 2.84889 37.5821 3.24778 37.5821ZM6.41 31.7586H24.7011V8.24143H6.41V31.7586ZM32.4856 31.7586C32.8978 31.7586 33.2561 31.5598 33.5606 31.1621C33.865 30.765 34.0172 30.3014 34.0172 29.7714C34.0172 29.2414 33.8626 28.7807 33.5533 28.3893C33.2444 27.9979 32.8839 27.8021 32.4717 27.8021C32.0594 27.8021 31.7011 28.001 31.3967 28.3986C31.0922 28.7957 30.94 29.2593 30.94 29.7893C30.94 30.3193 31.0946 30.78 31.4039 31.1714C31.7128 31.5629 32.0733 31.7586 32.4856 31.7586ZM8.29056 29.3407V10.6593H22.8206V29.3407H8.29056ZM32.4856 21.9779C32.8978 21.9779 33.2561 21.7793 33.5606 21.3821C33.865 20.9845 34.0172 20.5207 34.0172 19.9907C34.0172 19.4607 33.8626 19.0002 33.5533 18.6093C33.2444 18.2179 32.8839 18.0221 32.4717 18.0221C32.0594 18.0221 31.7011 18.2207 31.3967 18.6179C31.0922 19.0155 30.94 19.4793 30.94 20.0093C30.94 20.5393 31.0946 20.9998 31.4039 21.3907C31.7128 21.7821 32.0733 21.9779 32.4856 21.9779ZM32.4856 12.1979C32.8978 12.1979 33.2561 11.9993 33.5606 11.6021C33.865 11.2045 34.0172 10.7407 34.0172 10.2107C34.0172 9.68072 33.8626 9.22 33.5533 8.82857C33.2444 8.43714 32.8839 8.24143 32.4717 8.24143C32.0594 8.24143 31.7011 8.44024 31.3967 8.83786C31.0922 9.235 30.94 9.69857 30.94 10.2286C30.94 10.7586 31.0946 11.2193 31.4039 11.6107C31.7128 12.0021 32.0733 12.1979 32.4856 12.1979Z" fill="#2F2F2F"/>
</svg>
