<svg width="32" height="32" viewBox="0 0 32 32" fill="none" xmlns="http://www.w3.org/2000/svg">
<g clip-path="url(#clip0_888_687)">
<path d="M18.8827 6.00002C19.0289 5.99917 19.1738 6.02719 19.3092 6.08248C19.4445 6.13776 19.5676 6.21921 19.6714 6.32217C19.7755 6.42544 19.8582 6.5483 19.9146 6.68367C19.971 6.81903 20 6.96423 20 7.11088C20 7.25752 19.971 7.40272 19.9146 7.53809C19.8582 7.67345 19.7755 7.79632 19.6714 7.89958L11.5621 15.9977L19.6714 24.0959C19.8806 24.3051 19.9981 24.5888 19.9981 24.8846C19.9981 25.0311 19.9693 25.1761 19.9132 25.3114C19.8571 25.4468 19.775 25.5697 19.6714 25.6733C19.5678 25.7769 19.4449 25.859 19.3095 25.9151C19.1742 25.9711 19.0292 26 18.8827 26C18.5869 26 18.3032 25.8825 18.094 25.6733L9.20713 16.7864C9.10301 16.6832 9.02037 16.5603 8.96397 16.4249C8.90758 16.2896 8.87854 16.1444 8.87854 15.9977C8.87854 15.8511 8.90758 15.7059 8.96397 15.5705C9.02037 15.4352 9.10301 15.3123 9.20713 15.209L18.094 6.32217C18.1978 6.21921 18.3209 6.13776 18.4562 6.08248C18.5916 6.02719 18.7365 5.99917 18.8827 6.00002Z" fill="#2F2F2F"/>
</g>
<defs>
<clipPath id="clip0_888_687">
<rect width="32" height="32" fill="white" transform="matrix(-1 0 0 -1 32 32)"/>
</clipPath>
</defs>
</svg>
