<svg width="32" height="32" viewBox="0 0 32 32" fill="none" xmlns="http://www.w3.org/2000/svg">
<path d="M16.0212 17.062C13.682 17.062 11.4386 17.9386 9.78449 19.4989C8.13042 21.0592 7.20117 23.1754 7.20117 25.382C7.20117 25.5518 7.27265 25.7145 7.39989 25.8346C7.52712 25.9546 7.69969 26.022 7.87963 26.022C8.05957 26.022 8.23214 25.9546 8.35938 25.8346C8.48661 25.7145 8.55809 25.5518 8.55809 25.382C8.55809 23.5149 9.34438 21.7242 10.744 20.404C12.1436 19.0837 14.0418 18.342 16.0212 18.342C18.0005 18.342 19.8988 19.0837 21.2984 20.404C22.698 21.7242 23.4842 23.5149 23.4842 25.382C23.4842 25.5518 23.5557 25.7145 23.683 25.8346C23.8102 25.9546 23.9828 26.022 24.1627 26.022C24.3426 26.022 24.5152 25.9546 24.6425 25.8346C24.7697 25.7145 24.8412 25.5518 24.8412 25.382C24.8412 24.2894 24.613 23.2075 24.1698 22.1981C23.7265 21.1887 23.0769 20.2715 22.2579 19.4989C21.4388 18.7263 20.4665 18.1135 19.3964 17.6953C18.3263 17.2772 17.1794 17.062 16.0212 17.062Z" fill="#9F9F9F" stroke="#9F9F9F"/>
<path d="M16.0104 15.2224C16.633 15.2067 17.2463 15.0749 17.815 14.8347C18.3838 14.5945 18.8968 14.2505 19.3248 13.8225C19.7528 13.3944 20.0874 12.8908 20.3093 12.3403C20.5313 11.7898 20.6362 11.2033 20.6182 10.6144C20.6371 10.025 20.5328 9.43779 20.3113 8.88657C20.0898 8.33534 19.7554 7.83091 19.3273 7.4022C18.8992 6.97349 18.3858 6.62894 17.8166 6.38832C17.2474 6.1477 16.6336 6.01573 16.0104 6C15.3872 6.01573 14.7733 6.1477 14.2041 6.38832C13.635 6.62894 13.1216 6.97349 12.6935 7.4022C12.2654 7.83091 11.931 8.33534 11.7095 8.88657C11.4879 9.43779 11.3836 10.025 11.4026 10.6144C11.3846 11.2033 11.4895 11.7898 11.7115 12.3403C11.9334 12.8908 12.2679 13.3944 12.6959 13.8225C13.124 14.2505 13.637 14.5945 14.2058 14.8347C14.7745 15.0749 15.3877 15.2067 16.0104 15.2224ZM16.0104 7.28C16.456 7.29564 16.8939 7.39444 17.2989 7.57071C17.704 7.74698 18.0682 7.99724 18.3707 8.30711C18.6731 8.61699 18.9078 8.98035 19.0613 9.37632C19.2148 9.77229 19.284 10.193 19.265 10.6144C19.2831 11.0352 19.2132 11.4553 19.0593 11.8505C18.9054 12.2458 18.6705 12.6084 18.3682 12.9175C18.0658 13.2267 17.7019 13.4764 17.2973 13.6523C16.8927 13.8282 16.4554 13.9267 16.0104 13.9424C15.5654 13.9267 15.1281 13.8282 14.7235 13.6523C14.3189 13.4764 13.955 13.2267 13.6526 12.9175C13.3502 12.6084 13.1154 12.2458 12.9615 11.8505C12.8076 11.4553 12.7377 11.0352 12.7558 10.6144C12.7368 10.193 12.806 9.77229 12.9595 9.37632C13.113 8.98035 13.3477 8.61699 13.6501 8.30711C13.9526 7.99724 14.3168 7.74698 14.7219 7.57071C15.1269 7.39444 15.5648 7.29564 16.0104 7.28Z" fill="#9F9F9F" stroke="#9F9F9F"/>
</svg>
