<svg width="40" height="40" viewBox="0 0 40 40" fill="none" xmlns="http://www.w3.org/2000/svg">
<path d="M3.67561 0.0240936C3.66585 0.0344238 3.65854 3.60757 3.65854 7.95869V15.8692H2.65854H1.65854V12.1343V8.39931L0.836585 8.4062L0.0121951 8.41652L0.00487805 13.2943L0 18.1756H1.82927H3.65854V25.6971V33.2186H10.0854H16.5122V35.4561V37.6936H14.9634H13.4146V38.8468V40H15.7805H18.1463V36.6093V33.2186H21.9512H25.7561V35.4561V37.6936H24.2073H22.6585V38.8468V40H25.0366H27.4146V36.6093V33.2186H31.878H36.3415V25.6971V18.1756H37.3415H38.3415L38.3463 21.9002L38.3537 25.6282H39.1707H39.9878L39.9951 20.747L40 15.8692H38.1707H36.3415V7.93459V0H20.0171C11.0366 0 3.68293 0.0103264 3.67561 0.0240936ZM34.6829 16.6265V30.9122H20H5.31707V16.6265V2.34079H20H34.6829V16.6265Z" fill="#2F2F2F"/>
<path d="M7.39062 16.6091V27.8828H17.1955H27.0004V16.6091V5.33548H17.1955H7.39062V16.6091ZM25.3662 16.6091V25.5764H17.1955H9.02477V16.6091V7.64185H17.1955H25.3662V16.6091Z" fill="#2F2F2F"/>
<path d="M12.8638 11.3908C12.3516 11.5973 12.0077 12.365 12.0931 13.1051C12.1906 13.9416 12.7565 14.5302 13.3321 14.3959C14.1028 14.2169 14.5102 13.0156 14.115 12.0896C13.8565 11.4768 13.3467 11.1946 12.8638 11.3908Z" fill="#2F2F2F"/>
<path d="M20.9534 11.3805C20.59 11.5182 20.3192 11.8762 20.1924 12.3857C20.1509 12.544 20.1436 12.6473 20.1509 12.9295C20.1583 13.2497 20.1656 13.2979 20.2485 13.532C20.4095 13.9932 20.6997 14.303 21.0485 14.3925C21.5168 14.5096 21.9948 14.1619 22.2119 13.5388C22.2948 13.3048 22.3046 13.2462 22.3119 12.9468C22.3217 12.5819 22.2753 12.3099 22.1558 12.0414C21.907 11.4872 21.4022 11.2084 20.9534 11.3805Z" fill="#2F2F2F"/>
<path d="M13.7158 18.8195C13.7304 19.6284 13.7743 19.9967 13.9207 20.551C14.3621 22.2377 15.3817 23.4288 16.6451 23.7351C16.9207 23.8005 17.4597 23.8005 17.7451 23.7351C18.4963 23.563 19.1158 23.1155 19.6621 22.3444C20.167 21.6353 20.4865 20.816 20.6231 19.8763C20.6695 19.5665 20.706 18.9124 20.7085 18.4408V18.1069H17.206H13.7012L13.7158 18.8195ZM19.5012 19.8005C19.3231 20.6129 18.9792 21.2566 18.4817 21.7145C17.8256 22.3203 16.9256 22.4029 16.206 21.9279C15.9256 21.7455 15.728 21.5458 15.4987 21.2188C15.2182 20.8195 14.9743 20.2274 14.8939 19.7489L14.8792 19.656H17.206H19.5329L19.5012 19.8005Z" fill="#2F2F2F"/>
<path d="M30.5639 7.69366C29.9102 7.90365 29.3932 8.44409 29.1054 9.21862C28.9054 9.75563 28.8395 10.1825 28.8615 10.809C28.8761 11.253 28.9175 11.5043 29.0371 11.8658C29.3102 12.6988 29.8127 13.3047 30.4395 13.5491C30.6639 13.6386 31.2883 13.6386 31.5127 13.5491C32.2419 13.2634 32.7956 12.5026 33.0151 11.4802C33.0761 11.198 33.0834 11.1222 33.0834 10.6369C33.0834 10.1515 33.0761 10.0758 33.0151 9.79349C32.8029 8.81587 32.259 8.04822 31.5736 7.75907C31.298 7.64547 30.8151 7.61449 30.5639 7.69366ZM31.3419 9.29091C31.8371 9.55597 32.1078 10.3408 31.9517 11.0568C31.8615 11.4699 31.6761 11.7694 31.3932 11.9587C31.2444 12.0586 31.2127 12.0654 30.9736 12.0654C30.7273 12.0654 30.7102 12.062 30.5346 11.9381C30.3078 11.7797 30.1493 11.5525 30.0419 11.2289C29.9688 11.0155 29.9639 10.9708 29.9639 10.6369C29.9639 10.303 29.9688 10.2582 30.0395 10.0517C30.1761 9.65236 30.3639 9.41139 30.6566 9.27026C30.8566 9.17043 31.1322 9.17731 31.3419 9.29091Z" fill="#2F2F2F"/>
<path d="M29 17.0223V17.7969H30.9756H32.9512V17.0223V16.2478H30.9756H29V17.0223Z" fill="#2F2F2F"/>
<path d="M29 21.0155V21.79H30.9756H32.9512V21.0155V20.241H30.9756H29V21.0155Z" fill="#2F2F2F"/>
<path d="M29 25.0087V25.7832H30.9756H32.9512V25.0087V24.2341H30.9756H29V25.0087Z" fill="#2F2F2F"/>
</svg>
