<svg width="24" height="25" viewBox="0 0 24 25" fill="none" xmlns="http://www.w3.org/2000/svg">
<path fill-rule="evenodd" clip-rule="evenodd" d="M0.526123 11.0717C0.526123 5.4989 5.86835 1.31897 12 1.31897C18.1316 1.31897 23.4738 5.4989 23.4738 11.0717C23.4738 16.6446 18.1316 20.8245 12 20.8245C11.3965 20.8245 10.8052 20.7863 10.2261 20.7098L6.8987 22.9265C6.7099 23.0523 6.48806 23.1193 6.26121 23.119C6.03436 23.1187 5.81269 23.0512 5.6242 22.9249C5.43572 22.7987 5.28888 22.6194 5.20225 22.4098C5.11561 22.2001 5.09307 21.9695 5.13747 21.747L5.64805 19.1987C2.62354 17.4856 0.526123 14.5334 0.526123 11.0717ZM9.70521 5.90851C10.0095 5.90851 10.3014 6.0294 10.5165 6.24458C10.7317 6.45975 10.8526 6.75159 10.8526 7.0559V15.0876C10.8526 15.3919 10.7317 15.6837 10.5165 15.8989C10.3014 16.1141 10.0095 16.235 9.70521 16.235C9.4009 16.235 9.10906 16.1141 8.89389 15.8989C8.67871 15.6837 8.55782 15.3919 8.55782 15.0876V7.0559C8.55782 6.75159 8.67871 6.45975 8.89389 6.24458C9.10906 6.0294 9.4009 5.90851 9.70521 5.90851ZM10.8526 12.2191C10.8526 11.9656 10.9364 11.712 11.105 11.502L13.3998 8.63355C13.5934 8.40686 13.8676 8.2644 14.1644 8.23634C14.4611 8.20828 14.7572 8.29683 14.9898 8.48323C15.2224 8.66964 15.3734 8.93926 15.4107 9.23502C15.448 9.53078 15.3688 9.82945 15.1897 10.0678L13.4686 12.2191L15.1897 14.3705C15.2895 14.4874 15.3648 14.6231 15.4112 14.7696C15.4575 14.9162 15.4739 15.0705 15.4594 15.2236C15.445 15.3766 15.3999 15.5251 15.3269 15.6604C15.254 15.7956 15.1546 15.9149 15.0346 16.011C14.9147 16.1071 14.7767 16.1781 14.6287 16.2198C14.4808 16.2616 14.326 16.2732 14.1735 16.2539C14.0211 16.2347 13.874 16.185 13.7411 16.1078C13.6082 16.0307 13.4921 15.9276 13.3998 15.8047L11.105 12.9363C10.9418 12.7328 10.8528 12.4799 10.8526 12.2191Z" fill="#2F2F2F"/>
</svg>
