<svg width="32" height="32" viewBox="0 0 32 32" fill="none" xmlns="http://www.w3.org/2000/svg">
<path d="M29.7101 28.29L23.2101 21.79H23.1401C25.1435 19.4277 26.156 16.3823 25.9656 13.2907C25.7752 10.1991 24.3968 7.30087 22.1186 5.20226C19.8405 3.10365 16.8391 1.96723 13.7423 2.03072C10.6455 2.09421 7.69323 3.3527 5.503 5.54292C3.31278 7.73314 2.0543 10.6854 1.99081 13.7822C1.92731 16.879 3.06373 19.8804 5.16234 22.1586C7.26095 24.4367 10.1592 25.8151 13.2508 26.0055C16.3424 26.1959 19.3878 25.1834 21.7501 23.18C21.7501 23.18 21.7501 23.23 21.7501 23.25L28.2501 29.75C28.343 29.8437 28.4536 29.9181 28.5755 29.9689C28.6973 30.0196 28.828 30.0458 28.9601 30.0458C29.0921 30.0458 29.2228 30.0196 29.3446 29.9689C29.4665 29.9181 29.5771 29.8437 29.6701 29.75C29.7726 29.6592 29.8554 29.5483 29.9133 29.4243C29.9712 29.3002 30.003 29.1655 30.0068 29.0286C30.0105 28.8918 29.9861 28.7556 29.9351 28.6285C29.8841 28.5014 29.8075 28.3862 29.7101 28.29ZM14.0001 24C12.0222 24 10.0888 23.4135 8.44435 22.3147C6.79986 21.2159 5.51814 19.6541 4.76126 17.8268C4.00438 15.9995 3.80635 13.9889 4.1922 12.0491C4.57805 10.1093 5.53046 8.32743 6.92899 6.9289C8.32751 5.53038 10.1093 4.57797 12.0492 4.19212C13.989 3.80627 15.9996 4.0043 17.8269 4.76118C19.6542 5.51805 21.2159 6.79978 22.3148 8.44427C23.4136 10.0888 24.0001 12.0222 24.0001 14C24.0001 15.3132 23.7414 16.6136 23.2389 17.8268C22.7363 19.0401 21.9997 20.1425 21.0711 21.071C20.1425 21.9996 19.0401 22.7362 17.8269 23.2388C16.6136 23.7413 15.3133 24 14.0001 24Z" fill="#2F2F2F"/>
</svg>
