<svg width="32" height="32" viewBox="0 0 32 32" fill="none" xmlns="http://www.w3.org/2000/svg">
<path d="M15.1173 26C14.9711 26.0008 14.8262 25.9728 14.6908 25.9175C14.5555 25.8622 14.4324 25.7808 14.3286 25.6778C14.2245 25.5746 14.1418 25.4517 14.0854 25.3163C14.029 25.181 14 25.0358 14 24.8891C14 24.7425 14.029 24.5973 14.0854 24.4619C14.1418 24.3265 14.2245 24.2037 14.3286 24.1004L22.4379 16.0023L14.3286 7.90411C14.1194 7.69493 14.0019 7.41123 14.0019 7.1154C14.0019 6.96893 14.0307 6.82388 14.0868 6.68856C14.1429 6.55323 14.225 6.43027 14.3286 6.32669C14.4322 6.22312 14.5551 6.14096 14.6905 6.08491C14.8258 6.02885 14.9708 6 15.1173 6C15.4131 6 15.6968 6.11752 15.906 6.32669L24.7929 15.2136C24.897 15.3168 24.9796 15.4397 25.036 15.5751C25.0924 15.7104 25.1215 15.8556 25.1215 16.0023C25.1215 16.1489 25.0924 16.2941 25.036 16.4295C24.9796 16.5648 24.897 16.6877 24.7929 16.791L15.906 25.6778C15.8022 25.7808 15.6791 25.8622 15.5438 25.9175C15.4084 25.9728 15.2635 26.0008 15.1173 26Z" fill="#2F2F2F"/>
<path d="M8.1173 26C7.97111 26.0008 7.82618 25.9728 7.69084 25.9175C7.55549 25.8622 7.43239 25.7808 7.32859 25.6778C7.22447 25.5746 7.14183 25.4517 7.08544 25.3163C7.02904 25.181 7 25.0358 7 24.8891C7 24.7425 7.02904 24.5973 7.08544 24.4619C7.14183 24.3265 7.22447 24.2037 7.32859 24.1004L15.4379 16.0023L7.32859 7.90411C7.11941 7.69493 7.0019 7.41123 7.0019 7.1154C7.0019 6.96893 7.03075 6.82388 7.0868 6.68856C7.14285 6.55323 7.22502 6.43027 7.32859 6.32669C7.43216 6.22312 7.55513 6.14096 7.69045 6.08491C7.82578 6.02885 7.97082 6 8.1173 6C8.41312 6 8.69683 6.11752 8.90601 6.32669L17.7929 15.2136C17.897 15.3168 17.9796 15.4397 18.036 15.5751C18.0924 15.7104 18.1215 15.8556 18.1215 16.0023C18.1215 16.1489 18.0924 16.2941 18.036 16.4295C17.9796 16.5648 17.897 16.6877 17.7929 16.791L8.90601 25.6778C8.80221 25.7808 8.67911 25.8622 8.54377 25.9175C8.40842 25.9728 8.2635 26.0008 8.1173 26Z" fill="#2F2F2F"/>
</svg>
