<svg width="23" height="27" viewBox="0 0 23 27" fill="none" xmlns="http://www.w3.org/2000/svg">
<path d="M11.5 0C5.14625 0 0 0.710526 0 5.68421V19.1842C0 21.9268 2.25687 24.1579 5.03125 24.1579L2.875 26.2895V27H20.125V26.2895L17.9687 24.1579C20.7431 24.1579 23 21.9268 23 19.1842V5.68421C23 0.710526 17.8537 0 11.5 0ZM5.03125 21.3158C3.83812 21.3158 2.875 20.3637 2.875 19.1842C2.875 18.0047 3.83812 17.0526 5.03125 17.0526C6.22437 17.0526 7.1875 18.0047 7.1875 19.1842C7.1875 20.3637 6.22437 21.3158 5.03125 21.3158ZM10.0625 12.7895H2.875V5.68421H10.0625V12.7895ZM17.9687 21.3158C16.7756 21.3158 15.8125 20.3637 15.8125 19.1842C15.8125 18.0047 16.7756 17.0526 17.9687 17.0526C19.1619 17.0526 20.125 18.0047 20.125 19.1842C20.125 20.3637 19.1619 21.3158 17.9687 21.3158ZM20.125 12.7895H12.9375V5.68421H20.125V12.7895Z" fill="#2F2F2F"/>
</svg>
