<svg width="80" height="80" viewBox="0 0 80 80" fill="none" xmlns="http://www.w3.org/2000/svg">
<path d="M35.3972 53.7049C34.9923 53.7072 34.5908 53.6296 34.2159 53.4765C33.8411 53.3234 33.5001 53.0978 33.2126 52.8126L20.9049 40.5049C20.3255 39.9255 20 39.1397 20 38.3203C20 37.5009 20.3255 36.7151 20.9049 36.1357C21.4843 35.5563 22.2701 35.2308 23.0895 35.2308C23.9089 35.2308 24.6947 35.5563 25.2741 36.1357L35.3972 46.2895L54.751 26.9049C55.3304 26.3255 56.1163 26 56.9357 26C57.755 26 58.5409 26.3255 59.1203 26.9049C59.6997 27.4843 60.0252 28.2701 60.0252 29.0895C60.0252 29.9089 59.6997 30.6947 59.1203 31.2741L37.5818 52.8126C37.2943 53.0978 36.9533 53.3234 36.5784 53.4765C36.2036 53.6296 35.8021 53.7072 35.3972 53.7049Z" fill="#357EF1"/>
<path d="M40 80C32.0888 80 24.3552 77.654 17.7772 73.2588C11.1992 68.8635 6.07234 62.6164 3.04484 55.3073C0.0173314 47.9983 -0.774802 39.9556 0.768607 32.1964C2.31202 24.4372 6.12164 17.3098 11.7157 11.7157C17.3098 6.12164 24.4372 2.31202 32.1964 0.768607C39.9556 -0.774802 47.9983 0.0173314 55.3073 3.04484C62.6164 6.07234 68.8635 11.1992 73.2588 17.7772C77.654 24.3552 80 32.0888 80 40C80 50.6087 75.7857 60.7828 68.2843 68.2843C60.7828 75.7857 50.6087 80 40 80ZM40 6.15386C33.3059 6.15386 26.7621 8.1389 21.1961 11.858C15.6301 15.577 11.292 20.8631 8.73025 27.0476C6.16851 33.2322 5.49825 40.0376 6.80421 46.6031C8.11017 53.1686 11.3337 59.1994 16.0672 63.9328C20.8006 68.6663 26.8314 71.8898 33.397 73.1958C39.9625 74.5018 46.7678 73.8315 52.9524 71.2698C59.1369 68.708 64.423 64.3699 68.1421 58.8039C71.8611 53.238 73.8462 46.6941 73.8462 40C73.8462 31.0235 70.2802 22.4146 63.9328 16.0672C57.5855 9.71979 48.9766 6.15386 40 6.15386Z" fill="#357EF1"/>
</svg>
