<svg width="32" height="32" viewBox="0 0 32 32" fill="none" xmlns="http://www.w3.org/2000/svg">
<path d="M26 18.8827C26.0008 19.0289 25.9728 19.1738 25.9175 19.3092C25.8622 19.4445 25.7808 19.5676 25.6778 19.6714C25.5746 19.7755 25.4517 19.8582 25.3163 19.9146C25.181 19.971 25.0358 20 24.8891 20C24.7425 20 24.5973 19.971 24.4619 19.9146C24.3265 19.8582 24.2037 19.7755 24.1004 19.6714L16.0023 11.5621L7.90411 19.6714C7.69493 19.8806 7.41123 19.9981 7.1154 19.9981C6.96893 19.9981 6.82388 19.9693 6.68856 19.9132C6.55323 19.8571 6.43027 19.775 6.32669 19.6714C6.22312 19.5678 6.14096 19.4449 6.08491 19.3095C6.02885 19.1742 6 19.0292 6 18.8827C6 18.5869 6.11752 18.3032 6.32669 18.094L15.2136 9.20713C15.3168 9.10301 15.4397 9.02037 15.5751 8.96397C15.7104 8.90758 15.8556 8.87854 16.0023 8.87854C16.1489 8.87854 16.2941 8.90758 16.4295 8.96397C16.5648 9.02037 16.6877 9.10301 16.791 9.20713L25.6778 18.094C25.7808 18.1978 25.8622 18.3209 25.9175 18.4562C25.9728 18.5916 26.0008 18.7365 26 18.8827Z" fill="#2F2F2F"/>
</svg>
