<svg width="32" height="32" viewBox="0 0 32 32" fill="none" xmlns="http://www.w3.org/2000/svg">
<path d="M30 15.4999H27.9784L30.3896 9.56443C30.5392 9.1959 30.5364 8.78303 30.3816 8.41663C30.2268 8.05023 29.9329 7.7603 29.5644 7.61059C29.1959 7.46088 28.7831 7.46366 28.4166 7.61831C28.0502 7.77297 27.7602 8.06683 27.6103 8.43528L24.7404 15.4999H20.2596L17.3896 8.43528C17.2773 8.15881 17.0851 7.92213 16.8376 7.7555C16.59 7.58886 16.2984 7.49985 16 7.49985C15.7016 7.49985 15.41 7.58886 15.1624 7.7555C14.9149 7.92213 14.7227 8.15881 14.6103 8.43528L11.7404 15.4999H7.25964L4.38964 8.43528C4.31554 8.25273 4.2062 8.08658 4.06787 7.9463C3.92954 7.80601 3.76493 7.69436 3.58345 7.6177C3.40196 7.54105 3.20715 7.5009 3.01014 7.49955C2.81313 7.49819 2.61779 7.53566 2.43526 7.60982C2.25274 7.68397 2.08661 7.79336 1.94637 7.93173C1.80613 8.07009 1.69452 8.23474 1.61791 8.41624C1.54131 8.59775 1.50121 8.79258 1.49991 8.98958C1.49862 9.18659 1.53614 9.38193 1.61035 9.56443L4.02161 15.4999H2C1.60218 15.4999 1.22064 15.6579 0.93934 15.9392C0.658035 16.2205 0.5 16.602 0.5 16.9999C0.5 17.3977 0.658035 17.7792 0.93934 18.0605C1.22064 18.3418 1.60218 18.4999 2 18.4999H5.24036L8.11036 25.5644C8.22266 25.8409 8.41488 26.0776 8.66243 26.2442C8.90998 26.4108 9.2016 26.4999 9.5 26.4999C9.79841 26.4999 10.09 26.4108 10.3376 26.2442C10.5851 26.0776 10.7773 25.8409 10.8897 25.5644L13.7596 18.4999H18.2404L21.1104 25.5644C21.2227 25.8409 21.4149 26.0776 21.6624 26.2442C21.91 26.4108 22.2016 26.4999 22.5 26.4999C22.7984 26.4999 23.09 26.4108 23.3376 26.2442C23.5851 26.0776 23.7773 25.8409 23.8897 25.5644L26.7596 18.4999H30C30.3978 18.4999 30.7794 18.3418 31.0607 18.0605C31.342 17.7792 31.5 17.3977 31.5 16.9999C31.5 16.602 31.342 16.2205 31.0607 15.9392C30.7794 15.6579 30.3978 15.4999 30 15.4999ZM9.5 21.0145L8.47839 18.4999H10.5216L9.5 21.0145ZM14.9784 15.4999L16 12.9852L17.0216 15.4999H14.9784ZM22.5 21.0145L21.4784 18.4999H23.5216L22.5 21.0145Z" fill="#2F2F2F"/>
</svg>
