<svg width="32" height="32" viewBox="0 0 32 32" fill="none" xmlns="http://www.w3.org/2000/svg">
<path d="M22 8.94993C21.8137 9.13729 21.7092 9.39074 21.7092 9.65493C21.7092 9.91912 21.8137 10.1726 22 10.3599L26.56 14.9999L3 14.9999C2.73478 14.9999 2.48043 15.1053 2.29289 15.2928C2.10536 15.4804 2 15.7347 2 15.9999C2 16.2651 2.10536 16.5195 2.29289 16.707C2.48043 16.8946 2.73478 16.9999 3 16.9999L26.53 16.9999L22 21.5299C21.9063 21.6229 21.8319 21.7335 21.7811 21.8554C21.7303 21.9772 21.7042 22.1079 21.7042 22.2399C21.7042 22.3719 21.7303 22.5026 21.7811 22.6245C21.8319 22.7464 21.9063 22.857 22 22.9499C22.1874 23.1362 22.4408 23.2407 22.705 23.2407C22.9692 23.2407 23.2226 23.1362 23.41 22.9499L29.78 16.5799C29.9479 16.4113 30.0422 16.1829 30.0422 15.9449C30.0422 15.7069 29.9479 15.4786 29.78 15.3099L23.41 8.94993C23.2226 8.76368 22.9692 8.65914 22.705 8.65914C22.4408 8.65914 22.1874 8.76368 22 8.94993Z" fill="#2F2F2F"/>
</svg>
