<svg width="60" height="60" viewBox="0 0 60 60" fill="none" xmlns="http://www.w3.org/2000/svg">
<path d="M26.5479 40.2787C26.2442 40.2804 25.9431 40.2222 25.662 40.1074C25.3808 39.9925 25.1251 39.8233 24.9094 39.6094L15.6787 30.3787C15.2441 29.9441 15 29.3548 15 28.7402C15 28.1257 15.2441 27.5363 15.6787 27.1017C16.1132 26.6672 16.7026 26.4231 17.3171 26.4231C17.9317 26.4231 18.521 26.6672 18.9556 27.1017L26.5479 34.7171L41.0633 20.1787C41.4978 19.7441 42.0872 19.5 42.7017 19.5C43.3163 19.5 43.9057 19.7441 44.3402 20.1787C44.7747 20.6132 45.0189 21.2026 45.0189 21.8171C45.0189 22.4317 44.7747 23.021 44.3402 23.4556L28.1864 39.6094C27.9707 39.8233 27.715 39.9925 27.4338 40.1074C27.1527 40.2222 26.8516 40.2804 26.5479 40.2787Z" fill="#357EF1"/>
<path d="M30 60C24.0666 60 18.2664 58.2405 13.3329 54.9441C8.39943 51.6476 4.55426 46.9623 2.28363 41.4805C0.0129985 35.9987 -0.581101 29.9667 0.576455 24.1473C1.73401 18.3279 4.59123 12.9824 8.78681 8.78681C12.9824 4.59123 18.3279 1.73401 24.1473 0.576455C29.9667 -0.581101 35.9987 0.0129985 41.4805 2.28363C46.9623 4.55426 51.6476 8.39943 54.9441 13.3329C58.2405 18.2664 60 24.0666 60 30C60 37.9565 56.8393 45.5871 51.2132 51.2132C45.5871 56.8393 37.9565 60 30 60ZM30 4.6154C24.9794 4.6154 20.0716 6.10418 15.8971 8.89347C11.7226 11.6828 8.46899 15.6473 6.54769 20.2857C4.62638 24.9242 4.12368 30.0282 5.10315 34.9523C6.08263 39.8764 8.50028 44.3995 12.0504 47.9496C15.6005 51.4997 20.1236 53.9174 25.0477 54.8969C29.9718 55.8763 35.0758 55.3736 39.7143 53.4523C44.3527 51.531 48.3172 48.2774 51.1065 44.1029C53.8958 39.9285 55.3846 35.0206 55.3846 30C55.3846 23.2676 52.7102 16.8109 47.9496 12.0504C43.1891 7.28984 36.7324 4.6154 30 4.6154Z" fill="#357EF1"/>
</svg>
