<?xml version="1.0" encoding="utf-8"?>
<!-- Generator: Adobe Illustrator 25.0.0, SVG Export Plug-In . SVG Version: 6.00 Build 0)  -->
<svg version="1.1" id="레이어_1" xmlns="http://www.w3.org/2000/svg" xmlns:xlink="http://www.w3.org/1999/xlink" x="0px"
	 y="0px" viewBox="0 0 42 57" style="enable-background:new 0 0 42 57;" xml:space="preserve">
<style type="text/css">
	.st0{fill:none;stroke:#484848;stroke-linecap:round;stroke-linejoin:round;stroke-miterlimit:10;}
	.st1{fill:none;stroke:#484848;stroke-width:1.5;stroke-linecap:round;stroke-linejoin:round;stroke-miterlimit:10;}
</style>
<circle class="st0" cx="10" cy="12.8" r="4.8"/>
<line class="st0" x1="18.8" y1="10.6" x2="29.7" y2="10.6"/>
<line class="st0" x1="18.8" y1="15.1" x2="29.7" y2="15.1"/>
<path class="st1" d="M41,4.3L34,6L9.1,3.6c0,0-8.1-0.1-8.1,8.8S8.7,22,8.7,22l25.6-2.5l5,0.5c0,0-0.7-2.2,0.6-7.2S41,4.3,41,4.3z"/>
<line class="st0" x1="34" y1="6" x2="34" y2="19.6"/>
<path class="st1" d="M9.2,22l2,16.1c0,0,0.5,4.8,5,4c4.5-0.8,3-5.8,3-5.8l-1.9-15.1"/>
<polyline class="st0" points="17.8,25.2 21.5,24.6 21.5,28.2 22.8,31.2 18.7,32 "/>
<path class="st0" d="M16.2,42.1c0,0,1,13.1,13,11.3"/>
</svg>
