<svg width="32" height="32" viewBox="0 0 32 32" fill="none" xmlns="http://www.w3.org/2000/svg">
<g clip-path="url(#clip0_378_924)">
<path d="M15.9285 2C9.338 2 4.00003 2.74553 4.00003 7.96421V22.1292C4.00003 25.0069 6.34098 27.3479 9.21872 27.3479L6.98214 29.5845V30.33H24.8748V29.5845L22.6382 27.3479C25.5159 27.3479 27.8569 25.0069 27.8569 22.1292V7.96421C27.8569 2.74553 22.5189 2 15.9285 2ZM9.21872 24.3658C7.98114 24.3658 6.98214 23.3668 6.98214 22.1292C6.98214 20.8916 7.98114 19.8926 9.21872 19.8926C10.4563 19.8926 11.4553 20.8916 11.4553 22.1292C11.4553 23.3668 10.4563 24.3658 9.21872 24.3658ZM14.4374 15.4195H6.98214V7.96421H14.4374V15.4195ZM22.6382 24.3658C21.4006 24.3658 20.4016 23.3668 20.4016 22.1292C20.4016 20.8916 21.4006 19.8926 22.6382 19.8926C23.8758 19.8926 24.8748 20.8916 24.8748 22.1292C24.8748 23.3668 23.8758 24.3658 22.6382 24.3658ZM24.8748 15.4195H17.4195V7.96421H24.8748V15.4195Z" fill="black"/>
</g>
<defs>
<clipPath id="clip0_378_924">
<rect width="32" height="32" fill="white"/>
</clipPath>
</defs>
</svg>
