<svg width="40" height="40" viewBox="0 0 40 40" fill="none" xmlns="http://www.w3.org/2000/svg">
<path d="M26.2174 0.508259V1.01652H13.3503H0.483153V1.66031V2.30411H13.3503H26.2174V3.40533V4.50657H25.302H24.3865V12.0457V19.5849H12.1933H0V21.4655V23.346H0.839161H1.67832L1.68849 23.4206C1.69612 23.4646 1.9199 26.4091 2.1869 29.9704C2.45137 33.5282 2.67769 36.493 2.68531 36.554L2.69803 36.6624H3.45327H4.20852L3.30578 37.8653L2.40305 39.0682L2.7438 39.5222L3.08455 39.9797L4.34584 38.3194L5.60712 36.6624H14.9981H24.3865V37.4079V38.1533H30.3166H36.2492L36.9409 39.075L37.6351 40L37.9784 39.5426L38.3217 39.0851L37.9911 38.6446C37.8106 38.4007 37.6605 38.1906 37.6605 38.177C37.6605 38.1635 38.1869 38.1533 38.8303 38.1533H40V21.3299V4.50657H39.0845H38.1691V3.40533V2.30411H39.021H39.8729V1.66031V1.01652H39.021H38.1691V0.508259V0H37.686H37.2028V0.508259V1.01652H35.8551H34.5073V0.508259V0H34.0242H33.541V0.508259V1.01652H32.1933H30.8455V0.508259V0H30.3624H29.8792V0.508259V1.01652H28.5315H27.1837V0.508259V0H26.7006H26.2174V0.508259ZM29.8792 3.40533V4.50657H28.5315H27.1837V3.40533V2.30411H28.5315H29.8792V3.40533ZM33.541 3.40533V4.50657H32.1933H30.8455V3.40533V2.30411H32.1933H33.541V3.40533ZM37.2028 3.40533V4.50657H35.8551H34.5073V3.40533V2.30411H35.8551H37.2028V3.40533ZM28.0483 21.3469V36.8657H26.7006H25.3528V21.3469V5.82804H26.7006H28.0483V21.3469ZM31.7101 21.3469V36.8657H30.3624H29.0146V21.3469V5.82804H30.3624H31.7101V21.3469ZM35.3719 21.3469V36.8657H34.0242H32.6764V21.3469V5.82804H34.0242H35.3719V21.3469ZM39.0337 21.3469V36.8657H37.686H36.3382V21.3469V5.82804H37.686H39.0337V21.3469ZM24.3865 21.4655V22.0584H12.6764H0.966306V21.4655V20.8725H12.6764H24.3865V21.4655ZM24.3865 29.3435V35.341H13.9784H3.57279L3.13032 29.5028C2.88875 26.2939 2.68531 23.5968 2.67769 23.5053L2.66243 23.346H13.5257H24.3865V29.3435Z" fill="black"/>
</svg>
