<svg width="40" height="16" viewBox="0 0 40 16" fill="none" xmlns="http://www.w3.org/2000/svg">
<g clip-path="url(#clip0_843_687)">
<path d="M31.5446 1.51642L31.5805 1.4854C31.5909 1.47237 31.5991 1.45684 31.6045 1.43976C31.61 1.42268 31.6126 1.40439 31.6123 1.386C31.6123 1.3068 31.5634 1.24312 31.5022 1.24312C28.5669 1.00578 15.4276 1.71708e-05 10.2293 1.71708e-05C3.63601 1.71708e-05 2.43262 4.93719 2.43262 4.93719H5.85108C6.67272 1.46049 10.4041 1.55214 11.6511 1.52112C16.7573 1.52112 28.7223 1.52723 31.5022 1.52723C31.5171 1.52723 31.5316 1.52417 31.5446 1.51642Z" fill="#30B141"/>
<path d="M2.56043 6.07499C2.1704 6.07499 2.07031 6.46931 2.07031 6.46931L0.403126 13.5299L0.242824 14.2144L0.00105409 15.2352C-0.00327332 15.254 0.00613402 15.2693 0.0217503 15.2693H2.72092C2.96551 15.2486 3.45018 15.1118 3.62422 14.3742L5.58265 6.07499H2.56043Z" fill="#6A6A6F"/>
<path d="M20.8346 10.4458L26.0726 6.07492H23.5759C23.3093 6.09208 23.2038 6.12615 22.9652 6.3078L19.6969 8.80999L17.816 6.10453C17.81 6.09575 17.8027 6.08859 17.7944 6.0835C17.7862 6.07841 17.7772 6.07549 17.768 6.07492H14.3871C14.3717 6.07492 14.3681 6.08738 14.3787 6.10453L17.4449 10.528L14.1461 13.0441L14.1437 13.0488V13.0455C13.3962 13.6431 12.9382 13.9723 11.9807 13.9723H11.0432C10.7709 13.9723 10.5448 13.9645 10.2328 13.7721C9.95194 13.5982 9.7843 13.3467 9.77564 12.9649C9.77056 12.7461 9.81346 12.4559 9.90471 12.0818L10.996 7.45338H12.9743C13.1792 7.43787 13.5497 7.31521 13.6808 6.75804L13.8411 6.07492H11.3015L11.4793 5.55347C11.739 4.87834 12.1437 4.38157 12.6152 4.09747H10.3738C9.39032 4.09747 8.71543 4.55077 8.37262 5.43386L8.1873 6.07492H6.22379L5.89697 7.45338H7.88908C7.88908 7.45338 6.74213 12.3393 6.7427 12.3393C6.61664 12.8826 6.55681 13.3063 6.56302 13.5996C6.57299 14.0468 6.76753 14.5109 7.25785 14.8464C7.78974 15.2112 8.58617 15.2694 9.74949 15.2694H14.0805C15.0348 15.2694 15.6624 14.7355 15.6624 14.7355L18.6511 12.2679L20.4021 14.7682C20.4021 14.7682 20.717 15.2694 21.3789 15.2694H24.1569C24.1723 15.2694 24.1763 15.257 24.165 15.2391L20.8346 10.4458Z" fill="#6A6A6F"/>
</g>
<defs>
<clipPath id="clip0_843_687">
<rect width="40" height="15.6552" fill="white"/>
</clipPath>
</defs>
</svg>
