<svg width="40" height="37" viewBox="0 0 40 37" fill="none" xmlns="http://www.w3.org/2000/svg">
<g clip-path="url(#clip0_796_1672)">
<path d="M18.7493 24.2811C18.5847 24.282 18.4217 24.2528 18.2694 24.1953C18.1171 24.1377 17.9786 24.0529 17.8618 23.9458L12.8618 19.3208C12.6264 19.1031 12.4941 18.8078 12.4941 18.4998C12.4941 18.1919 12.6264 17.8966 12.8618 17.6789C13.0971 17.4612 13.4164 17.3389 13.7493 17.3389C14.0821 17.3389 14.4014 17.4612 14.6368 17.6789L18.7493 21.4945L26.6118 14.2102C26.8471 13.9924 27.1664 13.8701 27.4993 13.8701C27.8321 13.8701 28.1514 13.9924 28.3868 14.2102C28.6221 14.4279 28.7544 14.7232 28.7544 15.0311C28.7544 15.339 28.6221 15.6343 28.3868 15.852L19.6368 23.9458C19.52 24.0529 19.3814 24.1377 19.2291 24.1953C19.0768 24.2528 18.9138 24.282 18.7493 24.2811Z" fill="white"/>
</g>
<defs>
<clipPath id="clip0_796_1672">
<rect width="40" height="37" fill="white"/>
</clipPath>
</defs>
</svg>
