<svg width="32" height="32" viewBox="0 0 32 32" fill="none" xmlns="http://www.w3.org/2000/svg">
<path d="M6.00002 13.1173C5.99917 12.9711 6.02719 12.8262 6.08248 12.6908C6.13776 12.5555 6.21921 12.4324 6.32217 12.3286C6.42544 12.2245 6.5483 12.1418 6.68367 12.0854C6.81903 12.029 6.96423 12 7.11088 12C7.25752 12 7.40272 12.029 7.53809 12.0854C7.67345 12.1418 7.79631 12.2245 7.89958 12.3286L15.9977 20.4379L24.0959 12.3286C24.3051 12.1194 24.5888 12.0019 24.8846 12.0019C25.0311 12.0019 25.1761 12.0307 25.3114 12.0868C25.4468 12.1429 25.5697 12.225 25.6733 12.3286C25.7769 12.4322 25.859 12.5551 25.9151 12.6905C25.9711 12.8258 26 12.9708 26 13.1173C26 13.4131 25.8825 13.6968 25.6733 13.906L16.7864 22.7929C16.6832 22.897 16.5603 22.9796 16.4249 23.036C16.2896 23.0924 16.1444 23.1215 15.9977 23.1215C15.8511 23.1215 15.7059 23.0924 15.5705 23.036C15.4352 22.9796 15.3123 22.897 15.209 22.7929L6.32217 13.906C6.21921 13.8022 6.13776 13.6791 6.08248 13.5438C6.02719 13.4084 5.99917 13.2635 6.00002 13.1173Z" fill="#2F2F2F"/>
</svg>
