<svg width="42" height="42" viewBox="0 0 42 42" fill="none" xmlns="http://www.w3.org/2000/svg">
<path d="M27.6423 36.7612H2.67883C1.80292 36.7612 1 35.7276 1 34.384V3.37719C1 2.13692 1.72993 1 2.67883 1H39.3212C40.1971 1 41 2.03356 41 3.37719V34.384C41 35.6242 40.2701 36.7612 39.3212 36.7612H36.9854" stroke="#2F2F2F" stroke-width="1.5" stroke-miterlimit="10" stroke-linecap="round" stroke-linejoin="round"/>
<path d="M27.6435 32.937H4.94278C4.21285 32.937 3.62891 32.1102 3.62891 31.0766V6.68463C3.62891 5.65107 4.21285 4.82422 4.94278 4.82422H36.9136C37.6435 4.82422 38.2275 5.65107 38.2275 6.68463V28.8028C38.2275 30.7666 38.5194 32.2135 37.1326 32.627" stroke="#2F2F2F" stroke-miterlimit="10" stroke-linecap="round" stroke-linejoin="round"/>
<path d="M11.5117 40.998H27.6431" stroke="#2F2F2F" stroke-width="1.5" stroke-miterlimit="10" stroke-linecap="round" stroke-linejoin="round"/>
<path d="M17.8613 38.3115V40.9988" stroke="#2F2F2F" stroke-miterlimit="10" stroke-linecap="round" stroke-linejoin="round"/>
<path d="M24.0664 38.3115V40.9988" stroke="#2F2F2F" stroke-miterlimit="10" stroke-linecap="round" stroke-linejoin="round"/>
<path d="M33.5 41.0002H30.5C29.6667 41.0002 29 40.466 29 39.7983V29.7829C29 29.1152 29.6667 28.5811 30.5 28.5811H33.5C34.3333 28.5811 35 29.1152 35 29.7829V39.8651C34.9167 40.5328 34.25 41.0002 33.5 41.0002Z" stroke="#2F2F2F" stroke-width="1.5" stroke-miterlimit="10" stroke-linecap="round" stroke-linejoin="round"/>
<path d="M32 31.7521C32.5523 31.7521 33 31.4873 33 31.1607C33 30.8341 32.5523 30.5693 32 30.5693C31.4477 30.5693 31 30.8341 31 31.1607C31 31.4873 31.4477 31.7521 32 31.7521Z" fill="#2F2F2F"/>
<path d="M31 33.083H33" stroke="#2F2F2F" stroke-miterlimit="10" stroke-linecap="round" stroke-linejoin="round"/>
<path d="M31 35.1523H33" stroke="#2F2F2F" stroke-miterlimit="10" stroke-linecap="round" stroke-linejoin="round"/>
<path d="M31 37.3037H33" stroke="#2F2F2F" stroke-miterlimit="10" stroke-linecap="round" stroke-linejoin="round"/>
</svg>
