<svg width="24" height="25" viewBox="0 0 24 25" fill="none" xmlns="http://www.w3.org/2000/svg">
<path d="M21.8055 10.4795H21V10.438H12V14.438H17.6515C16.827 16.7665 14.6115 18.438 12 18.438C8.6865 18.438 6 15.7515 6 12.438C6 9.12449 8.6865 6.43799 12 6.43799C13.5295 6.43799 14.921 7.01499 15.9805 7.95749L18.809 5.12899C17.023 3.46449 14.634 2.43799 12 2.43799C6.4775 2.43799 2 6.91549 2 12.438C2 17.9605 6.4775 22.438 12 22.438C17.5225 22.438 22 17.9605 22 12.438C22 11.7675 21.931 11.113 21.8055 10.4795Z" fill="#FFC107"/>
<path d="M3.15295 7.78349L6.43845 10.193C7.32745 7.99199 9.48045 6.43799 12 6.43799C13.5295 6.43799 14.921 7.01499 15.9805 7.95749L18.809 5.12899C17.023 3.46449 14.634 2.43799 12 2.43799C8.15895 2.43799 4.82795 4.60649 3.15295 7.78349Z" fill="#FF3D00"/>
<path d="M12 22.438C14.583 22.438 16.93 21.4495 18.7045 19.842L15.6095 17.223C14.5718 18.0122 13.3038 18.439 12 18.438C9.39904 18.438 7.19054 16.7795 6.35853 14.465L3.09753 16.9775C4.75253 20.216 8.11354 22.438 12 22.438Z" fill="#4CAF50"/>
<path d="M21.8055 10.4795H21V10.438H12V14.438H17.6515C17.2571 15.5462 16.5467 16.5146 15.608 17.2235L15.6095 17.2225L18.7045 19.8415C18.4855 20.0405 22 17.438 22 12.438C22 11.7675 21.931 11.113 21.8055 10.4795Z" fill="#1976D2"/>
</svg>
