<svg width="96" height="16" viewBox="0 0 96 16" fill="none" xmlns="http://www.w3.org/2000/svg">
<g clip-path="url(#clip0_1044_842)">
<path fill-rule="evenodd" clip-rule="evenodd" d="M82.8666 14.8502C82.7886 15.2942 83.2266 15.6412 83.6126 15.4432L88.0026 13.1872L92.3916 15.4432C92.7776 15.6412 93.2156 15.2942 93.1376 14.8512L92.3076 10.1212L95.8306 6.76517C96.1596 6.45117 95.9886 5.87717 95.5476 5.81517L90.6496 5.11917L88.4656 0.792167C88.424 0.704456 88.3584 0.63035 88.2763 0.57846C88.1943 0.526569 88.0992 0.499023 88.0021 0.499023C87.905 0.499023 87.8099 0.526569 87.7279 0.57846C87.6459 0.63035 87.5802 0.704456 87.5386 0.792167L85.3546 5.12017L80.4566 5.81617C80.0156 5.87817 79.8446 6.45217 80.1736 6.76617L83.6966 10.1222L82.8666 14.8522V14.8502Z" fill="#FFEC3E"/>
</g>
<g clip-path="url(#clip1_1044_842)">
<path fill-rule="evenodd" clip-rule="evenodd" d="M62.8666 14.8502C62.7886 15.2942 63.2266 15.6412 63.6126 15.4432L68.0026 13.1872L72.3916 15.4432C72.7776 15.6412 73.2156 15.2942 73.1376 14.8512L72.3076 10.1212L75.8306 6.76517C76.1596 6.45117 75.9886 5.87717 75.5476 5.81517L70.6496 5.11917L68.4656 0.792167C68.424 0.704456 68.3584 0.63035 68.2763 0.57846C68.1943 0.526569 68.0992 0.499023 68.0021 0.499023C67.905 0.499023 67.8099 0.526569 67.7279 0.57846C67.6459 0.63035 67.5802 0.704456 67.5386 0.792167L65.3546 5.12017L60.4566 5.81617C60.0156 5.87817 59.8446 6.45217 60.1736 6.76617L63.6966 10.1222L62.8666 14.8522V14.8502Z" fill="#FFEC3E"/>
</g>
<g clip-path="url(#clip2_1044_842)">
<path fill-rule="evenodd" clip-rule="evenodd" d="M42.8666 14.8502C42.7886 15.2942 43.2266 15.6412 43.6126 15.4432L48.0026 13.1872L52.3916 15.4432C52.7776 15.6412 53.2156 15.2942 53.1376 14.8512L52.3076 10.1212L55.8306 6.76517C56.1596 6.45117 55.9886 5.87717 55.5476 5.81517L50.6496 5.11917L48.4656 0.792167C48.424 0.704456 48.3584 0.63035 48.2763 0.57846C48.1943 0.526569 48.0992 0.499023 48.0021 0.499023C47.905 0.499023 47.8099 0.526569 47.7279 0.57846C47.6459 0.63035 47.5802 0.704456 47.5386 0.792167L45.3546 5.12017L40.4566 5.81617C40.0156 5.87817 39.8446 6.45217 40.1736 6.76617L43.6966 10.1222L42.8666 14.8522V14.8502Z" fill="#FFEC3E"/>
</g>
<g clip-path="url(#clip3_1044_842)">
<path fill-rule="evenodd" clip-rule="evenodd" d="M22.8666 14.8502C22.7886 15.2942 23.2266 15.6412 23.6126 15.4432L28.0026 13.1872L32.3916 15.4432C32.7776 15.6412 33.2156 15.2942 33.1376 14.8512L32.3076 10.1212L35.8306 6.76517C36.1596 6.45117 35.9886 5.87717 35.5476 5.81517L30.6496 5.11917L28.4656 0.792167C28.424 0.704456 28.3584 0.63035 28.2763 0.57846C28.1943 0.526569 28.0992 0.499023 28.0021 0.499023C27.905 0.499023 27.8099 0.526569 27.7279 0.57846C27.6459 0.63035 27.5802 0.704456 27.5386 0.792167L25.3546 5.12017L20.4566 5.81617C20.0156 5.87817 19.8446 6.45217 20.1736 6.76617L23.6966 10.1222L22.8666 14.8522V14.8502Z" fill="#FFEC3E"/>
</g>
<g clip-path="url(#clip4_1044_842)">
<path fill-rule="evenodd" clip-rule="evenodd" d="M2.86661 14.8502C2.78861 15.2942 3.22661 15.6412 3.61261 15.4432L8.00261 13.1872L12.3916 15.4432C12.7776 15.6412 13.2156 15.2942 13.1376 14.8512L12.3076 10.1212L15.8306 6.76517C16.1596 6.45117 15.9886 5.87717 15.5476 5.81517L10.6496 5.11917L8.46561 0.792167C8.424 0.704456 8.35836 0.63035 8.27632 0.57846C8.19427 0.526569 8.09918 0.499023 8.00211 0.499023C7.90503 0.499023 7.80994 0.526569 7.7279 0.57846C7.64585 0.63035 7.58021 0.704456 7.53861 0.792167L5.35461 5.12017L0.456607 5.81617C0.0156066 5.87817 -0.155393 6.45217 0.173607 6.76617L3.69661 10.1222L2.86661 14.8522V14.8502Z" fill="#FFEC3E"/>
</g>
<defs>
<clipPath id="clip0_1044_842">
<rect width="16" height="16" fill="white" transform="translate(80)"/>
</clipPath>
<clipPath id="clip1_1044_842">
<rect width="16" height="16" fill="white" transform="translate(60)"/>
</clipPath>
<clipPath id="clip2_1044_842">
<rect width="16" height="16" fill="white" transform="translate(40)"/>
</clipPath>
<clipPath id="clip3_1044_842">
<rect width="16" height="16" fill="white" transform="translate(20)"/>
</clipPath>
<clipPath id="clip4_1044_842">
<rect width="16" height="16" fill="white"/>
</clipPath>
</defs>
</svg>
