<svg width="32" height="32" viewBox="0 0 32 32" fill="none" xmlns="http://www.w3.org/2000/svg">
<path d="M16.8827 6.00002C17.0289 5.99917 17.1738 6.02719 17.3092 6.08248C17.4445 6.13776 17.5676 6.21921 17.6714 6.32217C17.7755 6.42544 17.8582 6.5483 17.9146 6.68367C17.971 6.81903 18 6.96423 18 7.11088C18 7.25752 17.971 7.40272 17.9146 7.53809C17.8582 7.67345 17.7755 7.79631 17.6714 7.89958L9.56215 15.9977L17.6714 24.0959C17.8806 24.3051 17.9981 24.5888 17.9981 24.8846C17.9981 25.0311 17.9693 25.1761 17.9132 25.3114C17.8571 25.4468 17.775 25.5697 17.6714 25.6733C17.5678 25.7769 17.4449 25.859 17.3095 25.9151C17.1742 25.9711 17.0292 26 16.8827 26C16.5869 26 16.3032 25.8825 16.094 25.6733L7.20713 16.7864C7.10301 16.6832 7.02037 16.5603 6.96397 16.4249C6.90758 16.2896 6.87854 16.1444 6.87854 15.9977C6.87854 15.8511 6.90758 15.7059 6.96397 15.5705C7.02037 15.4352 7.10301 15.3123 7.20713 15.209L16.094 6.32217C16.1978 6.21921 16.3209 6.13776 16.4562 6.08248C16.5916 6.02719 16.7365 5.99917 16.8827 6.00002Z" fill="#2F2F2F"/>
<path d="M23.8827 6.00002C24.0289 5.99917 24.1738 6.02719 24.3092 6.08248C24.4445 6.13776 24.5676 6.21921 24.6714 6.32217C24.7755 6.42544 24.8582 6.5483 24.9146 6.68367C24.971 6.81903 25 6.96423 25 7.11088C25 7.25752 24.971 7.40272 24.9146 7.53809C24.8582 7.67345 24.7755 7.79631 24.6714 7.89958L16.5621 15.9977L24.6714 24.0959C24.8806 24.3051 24.9981 24.5888 24.9981 24.8846C24.9981 25.0311 24.9693 25.1761 24.9132 25.3114C24.8571 25.4468 24.775 25.5697 24.6714 25.6733C24.5678 25.7769 24.4449 25.859 24.3095 25.9151C24.1742 25.9711 24.0292 26 23.8827 26C23.5869 26 23.3032 25.8825 23.094 25.6733L14.2071 16.7864C14.103 16.6832 14.0204 16.5603 13.964 16.4249C13.9076 16.2896 13.8785 16.1444 13.8785 15.9977C13.8785 15.8511 13.9076 15.7059 13.964 15.5705C14.0204 15.4352 14.103 15.3123 14.2071 15.209L23.094 6.32217C23.1978 6.21921 23.3209 6.13776 23.4562 6.08248C23.5916 6.02719 23.7365 5.99917 23.8827 6.00002Z" fill="#2F2F2F"/>
</svg>
