<svg width="32" height="32" viewBox="0 0 32 32" fill="none" xmlns="http://www.w3.org/2000/svg">
<path d="M12.2321 16.0736C11.2865 14.7051 10.724 13.054 10.608 12.9137C11.9928 11.9482 14.7013 10.7349 14.853 8.99408C15.0459 6.74484 11.2353 2.04272 10.5047 2C8.50542 2.02136 4.84639 5.40483 4.41278 6.42728C3.60678 8.54124 4.00622 10.5085 5.39179 13.3566C7.15616 17.593 13.7095 25.6295 17.4582 28.1521C19.9389 30.0561 21.7509 30.8037 23.9147 30.3523C24.9208 30.1614 28.5542 27.1802 28.918 25.1645C29.007 24.4169 24.7834 19.4606 22.5989 19.2641C20.9029 19.1075 19.2767 21.6465 18.1111 22.8875C17.9951 22.7394 17.0011 21.9641 15.9345 20.7366C14.5461 19.2776 13.2559 17.5638 12.2321 16.0736Z" fill="#2F2F2F"/>
</svg>
