<svg width="50" height="50" viewBox="0 0 50 50" fill="none" xmlns="http://www.w3.org/2000/svg">
<path d="M15 20.1172C14.9992 19.971 15.0272 19.8261 15.0825 19.6908C15.1378 19.5554 15.2192 19.4323 15.3222 19.3285C15.4254 19.2244 15.5483 19.1418 15.6837 19.0854C15.819 19.029 15.9642 18.9999 16.1109 18.9999C16.2575 18.9999 16.4027 19.029 16.5381 19.0854C16.6735 19.1418 16.7963 19.2244 16.8996 19.3285L24.9977 27.4378L33.0959 19.3285C33.3051 19.1194 33.5888 19.0018 33.8846 19.0018C34.0311 19.0018 34.1761 19.0307 34.3114 19.0867C34.4468 19.1428 34.5697 19.225 34.6733 19.3285C34.7769 19.4321 34.859 19.5551 34.9151 19.6904C34.9711 19.8257 35 19.9708 35 20.1172C35 20.4131 34.8825 20.6968 34.6733 20.9059L25.7864 29.7928C25.6832 29.8969 25.5603 29.9796 25.4249 30.036C25.2896 30.0924 25.1444 30.1214 24.9977 30.1214C24.8511 30.1214 24.7059 30.0924 24.5705 30.036C24.4352 29.9796 24.3123 29.8969 24.209 29.7928L15.3222 20.9059C15.2192 20.8021 15.1378 20.679 15.0825 20.5437C15.0272 20.4084 14.9992 20.2634 15 20.1172Z" fill="white"/>
</svg>
