<svg width="32" height="32" viewBox="0 0 32 32" fill="none" xmlns="http://www.w3.org/2000/svg">
<g clip-path="url(#clip0_247_1394)">
<path d="M15 21.0002C14.8684 21.0009 14.7379 20.9757 14.6161 20.926C14.4943 20.8762 14.3834 20.8029 14.29 20.7102L10.29 16.7102C10.1017 16.5219 9.99591 16.2665 9.99591 16.0002C9.99591 15.7339 10.1017 15.4785 10.29 15.2902C10.4783 15.1019 10.7337 14.9961 11 14.9961C11.2663 14.9961 11.5217 15.1019 11.71 15.2902L15 18.5902L21.29 12.2902C21.4783 12.1019 21.7337 11.9961 22 11.9961C22.2663 11.9961 22.5217 12.1019 22.71 12.2902C22.8983 12.4785 23.0041 12.7339 23.0041 13.0002C23.0041 13.2665 22.8983 13.5219 22.71 13.7102L15.71 20.7102C15.6166 20.8029 15.5057 20.8762 15.3839 20.926C15.2621 20.9757 15.1316 21.0009 15 21.0002Z" fill="black"/>
<path d="M16 29C13.4288 29 10.9154 28.2376 8.77759 26.8091C6.63975 25.3807 4.97351 23.3503 3.98957 20.9749C3.00563 18.5995 2.74819 15.9856 3.2498 13.4638C3.75141 10.9421 4.98953 8.6257 6.80762 6.80762C8.6257 4.98953 10.9421 3.75141 13.4638 3.2498C15.9856 2.74819 18.5995 3.00563 20.9749 3.98957C23.3503 4.97351 25.3807 6.63975 26.8091 8.77759C28.2376 10.9154 29 13.4288 29 16C29 19.4478 27.6304 22.7544 25.1924 25.1924C22.7544 27.6304 19.4478 29 16 29ZM16 5.00001C13.8244 5.00001 11.6977 5.64514 9.88873 6.85384C8.07979 8.06254 6.66989 9.7805 5.83733 11.7905C5.00477 13.8005 4.78693 16.0122 5.21137 18.146C5.63581 20.2798 6.68345 22.2398 8.22183 23.7782C9.76021 25.3166 11.7202 26.3642 13.854 26.7886C15.9878 27.2131 18.1995 26.9952 20.2095 26.1627C22.2195 25.3301 23.9375 23.9202 25.1462 22.1113C26.3549 20.3023 27 18.1756 27 16C27 13.0826 25.8411 10.2847 23.7782 8.22183C21.7153 6.15893 18.9174 5.00001 16 5.00001Z" fill="black"/>
</g>
<defs>
<clipPath id="clip0_247_1394">
<rect width="32" height="32" fill="white"/>
</clipPath>
</defs>
</svg>
