<svg width="42" height="42" viewBox="0 0 42 42" fill="none" xmlns="http://www.w3.org/2000/svg">
<path d="M25.043 7.40679C25.043 7.40679 26.9008 6.54099 29.1959 7.14705C31.6002 7.75312 34.988 6.28125 34.988 6.28125" stroke="#2F2F2F" stroke-width="1.5" stroke-miterlimit="10" stroke-linecap="round" stroke-linejoin="round"/>
<path d="M30.6172 7.32031V11.0433" stroke="#2F2F2F" stroke-width="1.5" stroke-miterlimit="10" stroke-linecap="round" stroke-linejoin="round"/>
<path d="M26.3555 16.6707V11.043H34.6612V16.6707" stroke="#2F2F2F" stroke-width="1.5" stroke-miterlimit="10" stroke-linecap="round" stroke-linejoin="round"/>
<path d="M22.3122 17.3635C23.0772 16.9306 24.0608 16.6709 25.0444 16.6709H36.3009C38.9238 16.6709 41.0002 18.3159 41.0002 20.3939V41H21.9844" stroke="#2F2F2F" stroke-width="1.5" stroke-miterlimit="10" stroke-linecap="round" stroke-linejoin="round"/>
<path d="M34.7698 26.8877H25.4805V36.5847H34.7698V26.8877Z" stroke="#2F2F2F" stroke-miterlimit="10" stroke-linecap="round" stroke-linejoin="round"/>
<path d="M5.69922 2.12554C5.69922 2.12554 7.55709 1.25974 9.85211 1.8658C12.1471 2.47187 15.6443 1 15.6443 1" stroke="#2F2F2F" stroke-width="1.5" stroke-miterlimit="10" stroke-linecap="round" stroke-linejoin="round"/>
<path d="M11.3828 2.03906V5.8486" stroke="#2F2F2F" stroke-width="1.5" stroke-miterlimit="10" stroke-linecap="round" stroke-linejoin="round"/>
<path d="M7.00977 11.3898V5.84863H15.4248V11.3898" stroke="#2F2F2F" stroke-width="1.5" stroke-miterlimit="10" stroke-linecap="round" stroke-linejoin="round"/>
<path d="M21.6552 17.3637V41.0001H1V15.1126C1 13.0347 3.07644 11.3896 5.69932 11.3896H16.9558C19.5787 11.3896 21.6552 13.0347 21.6552 15.1126V17.3637Z" stroke="#2F2F2F" stroke-width="1.5" stroke-miterlimit="10" stroke-linecap="round" stroke-linejoin="round"/>
<path d="M16.4097 22.0391H6.13672V36.5846H16.4097V22.0391Z" stroke="#2F2F2F" stroke-miterlimit="10" stroke-linecap="round" stroke-linejoin="round"/>
</svg>
