<svg width="20" height="21" viewBox="0 0 20 21" fill="none" xmlns="http://www.w3.org/2000/svg">
<path d="M5.00004 18.969C4.54171 18.969 4.14948 18.8059 3.82337 18.4798C3.49726 18.1537 3.33393 17.7612 3.33337 17.3023V8.969C3.33337 8.51066 3.49671 8.11844 3.82337 7.79233C4.15004 7.46622 4.54226 7.30288 5.00004 7.30233H5.83337V5.63566C5.83337 4.48288 6.23976 3.50038 7.05254 2.68816C7.86532 1.87594 8.84782 1.46955 10 1.46899C11.1523 1.46844 12.135 1.87483 12.9484 2.68816C13.7617 3.50149 14.1678 4.48399 14.1667 5.63566V7.30233H15C15.4584 7.30233 15.8509 7.46566 16.1775 7.79233C16.5042 8.119 16.6673 8.51122 16.6667 8.969V17.3023C16.6667 17.7607 16.5037 18.1532 16.1775 18.4798C15.8514 18.8065 15.4589 18.9696 15 18.969H5.00004ZM10 14.8023C10.4584 14.8023 10.8509 14.6393 11.1775 14.3132C11.5042 13.9871 11.6673 13.5946 11.6667 13.1357C11.6662 12.6768 11.5031 12.2846 11.1775 11.959C10.852 11.6334 10.4595 11.4701 10 11.469C9.5406 11.4679 9.14837 11.6312 8.82337 11.959C8.49837 12.2868 8.33504 12.679 8.33337 13.1357C8.33171 13.5923 8.49504 13.9848 8.82337 14.3132C9.15171 14.6415 9.54393 14.8046 10 14.8023ZM7.50004 7.30233H12.5V5.63566C12.5 4.94122 12.257 4.35094 11.7709 3.86483C11.2848 3.37872 10.6945 3.13566 10 3.13566C9.3056 3.13566 8.71532 3.37872 8.22921 3.86483C7.7431 4.35094 7.50004 4.94122 7.50004 5.63566V7.30233Z" fill="#AFAFAF"/>
</svg>
