<svg width="30" height="40" viewBox="0 0 30 40" fill="none" xmlns="http://www.w3.org/2000/svg">
<path d="M0.695306 0.0177345C0.476015 0.044857 0.253068 0.155823 0.121493 0.296379L0.011847 0.41721L0.000882417 19.3924C-0.00277245 31.823 0.00453728 38.3971 0.0301213 38.4563C0.0812894 38.587 0.304236 38.7522 0.519873 38.8188C0.706271 38.878 0.717236 38.878 2.0074 38.878H3.30853L3.32681 39.2084C3.34874 39.5857 3.40722 39.704 3.63747 39.8421C3.9189 40.0073 3.81291 40 6.15202 40C8.49113 40 8.38514 40.0073 8.66656 39.8421C8.89682 39.704 8.9553 39.5857 8.97723 39.2084L8.9955 38.878H14.9968H20.9981L21.0163 39.2059C21.0346 39.5807 21.0968 39.704 21.327 39.8421C21.6084 40.0073 21.5024 40 23.8416 40C26.1807 40 26.0747 40.0073 26.3561 39.8421C26.5864 39.704 26.6448 39.5857 26.6668 39.2084L26.685 38.878H27.9862C29.2763 38.878 29.2873 38.878 29.4737 38.8188C29.6893 38.7522 29.8977 38.5968 29.9561 38.4612C29.989 38.3897 30 33.7291 30 19.4195C30 1.13726 29.9963 0.468994 29.9306 0.372822C29.8355 0.227337 29.7003 0.133629 29.5029 0.0645866L29.3239 0.00293732L15.0882 0.000473022C7.25944 -0.00199509 0.783023 0.00540161 0.695306 0.0177345ZM28.2091 7.10475V12.9859H14.9968H1.78446V7.10475V1.22356H14.9968H28.2091V7.10475ZM28.2018 25.9985L28.1908 37.6573H14.9968H1.80273L1.79177 25.9985L1.78446 14.3422H14.9968H28.2091L28.2018 25.9985Z" fill="black"/>
<path d="M19.0785 6.73445C18.8958 6.77884 18.6984 6.90707 18.6509 7.01803C18.629 7.07475 18.618 7.79973 18.6253 9.12885L18.6363 11.1509L18.7276 11.2421C18.7752 11.2914 18.8848 11.3556 18.9652 11.3876L19.1114 11.4443H22.1267C25.0323 11.4443 25.1456 11.4419 25.2845 11.3975C25.6646 11.2693 25.7559 10.8944 25.4599 10.6848C25.2333 10.5246 25.3978 10.532 22.5579 10.5246L19.9703 10.5172V8.79102C19.9703 7.39778 19.9593 7.05009 19.9191 6.98598C19.857 6.87994 19.6414 6.75665 19.4696 6.72459C19.2941 6.69007 19.2539 6.69253 19.0785 6.73445Z" fill="black"/>
<path d="M19.0029 16.0123C18.8348 16.0715 18.7617 16.1233 18.6886 16.2293C18.6228 16.323 18.6191 16.4389 18.6191 18.3377C18.6191 20.2364 18.6228 20.3523 18.6886 20.446C18.769 20.5644 18.8494 20.6161 19.0321 20.6679C19.1491 20.7 19.5475 20.7049 22.1534 20.7049C25.5086 20.7049 25.271 20.7173 25.5049 20.5224C25.7059 20.3572 25.6657 20.0564 25.4282 19.9109C25.2344 19.7925 25.26 19.7925 22.5298 19.7925H19.9714V18.0664C19.9714 16.2244 19.9714 16.2416 19.796 16.1109C19.6206 15.9802 19.2295 15.9309 19.0029 16.0123Z" fill="black"/>
</svg>
