<svg width="24" height="25" viewBox="0 0 24 25" fill="none" xmlns="http://www.w3.org/2000/svg">
<rect width="24" height="24" transform="translate(0 0.5)" fill="white"/>
<path d="M11.0689 17.9666C11.1653 18.0669 11.2419 18.1862 11.2941 18.3174C11.3463 18.4487 11.3731 18.5895 11.3731 18.7316C11.3731 18.8737 11.3463 19.0145 11.2941 19.1458C11.2419 19.277 11.1653 19.3963 11.0689 19.4966L10.6276 19.9574C10.1592 20.4483 9.60216 20.8375 8.98879 21.1022C8.37541 21.367 7.71786 21.5022 7.05414 21.5C6.05461 21.5003 5.07745 21.1911 4.24626 20.6114C3.41508 20.0317 2.76724 19.2076 2.38469 18.2434C2.00215 17.2792 1.90209 16.2181 2.09717 15.1945C2.29226 14.1709 2.77373 13.2307 3.48066 12.4928L6.4758 9.36537C7.11287 8.70026 7.90861 8.22503 8.78065 7.98888C9.65268 7.75274 10.5693 7.76427 11.4357 8.02227C12.302 8.28027 13.0865 8.77537 13.7081 9.45632C14.3296 10.1373 14.7656 10.9793 14.9708 11.8953C15.0048 12.0345 15.0118 12.1795 14.9915 12.3216C14.9711 12.4637 14.9238 12.6002 14.8523 12.723C14.7808 12.8458 14.6865 12.9525 14.575 13.0368C14.4635 13.121 14.3371 13.1812 14.203 13.2138C14.069 13.2464 13.93 13.2507 13.7944 13.2265C13.6587 13.2023 13.529 13.1501 13.4129 13.0729C13.2968 12.9957 13.1967 12.895 13.1183 12.7769C13.0399 12.6588 12.9849 12.5255 12.9565 12.3848C12.8347 11.8442 12.5769 11.3472 12.2096 10.9455C11.8423 10.5437 11.3789 10.2517 10.8673 10.0995C10.3557 9.9474 9.81446 9.9407 9.29956 10.0801C8.78466 10.2196 8.31477 10.5001 7.93846 10.8927L4.94332 14.0201C4.52582 14.4557 4.24141 15.0108 4.12605 15.6152C4.01069 16.2196 4.06956 16.8461 4.29523 17.4156C4.5209 17.985 4.90322 18.4718 5.39385 18.8143C5.88447 19.1569 6.46136 19.3398 7.05156 19.34C7.44371 19.3412 7.8322 19.2612 8.19452 19.1045C8.55685 18.9479 8.88582 18.7177 9.16238 18.4274L9.60281 17.9666C9.69892 17.8658 9.81315 17.7858 9.93895 17.7312C10.0647 17.6766 10.1996 17.6485 10.3359 17.6485C10.4721 17.6485 10.607 17.6766 10.7328 17.7312C10.8586 17.7858 10.9728 17.8658 11.0689 17.9666ZM20.5198 5.04541C19.5718 4.05588 18.2863 3.5 16.9459 3.5C15.6055 3.5 14.3199 4.05588 13.3719 5.04541L12.9315 5.50531C12.7372 5.7082 12.628 5.98337 12.628 6.2703C12.628 6.55723 12.7372 6.8324 12.9315 7.03529C13.1258 7.23818 13.3893 7.35216 13.6641 7.35216C13.9389 7.35216 14.2025 7.23818 14.3968 7.03529L14.8381 6.5745C15.3981 5.9897 16.1577 5.66116 16.9497 5.66116C17.7418 5.66116 18.5014 5.9897 19.0614 6.5745C19.6215 7.1593 19.9361 7.95245 19.9361 8.77948C19.9361 9.60651 19.6215 10.3997 19.0614 10.9845L16.0611 14.1074C15.7845 14.3977 15.4556 14.6279 15.0933 14.7845C14.7309 14.9412 14.3424 15.0212 13.9503 15.02C13.2776 15.0195 12.6247 14.7817 12.0977 14.3452C11.5706 13.9087 11.2002 13.2991 11.0465 12.6152C10.9843 12.3362 10.8186 12.0944 10.5856 11.943C10.3527 11.7916 10.0717 11.743 9.8045 11.808C9.53727 11.8729 9.30569 12.046 9.1607 12.2892C9.01571 12.5324 8.96919 12.8258 9.03137 13.1048C9.29089 14.263 9.9175 15.2957 10.8096 16.0354C11.7016 16.7751 12.8069 17.1784 13.946 17.18H13.9503C14.6143 17.1819 15.2721 17.0463 15.8856 16.7811C16.4992 16.5158 17.0562 16.1262 17.5246 15.6347L20.5198 12.5072C20.9891 12.0173 21.3613 11.4357 21.6153 10.7955C21.8693 10.1554 22 9.46925 22 8.77633C22 8.08341 21.8693 7.39728 21.6153 6.75713C21.3613 6.11697 20.9891 5.53532 20.5198 5.04541Z" fill="#357EF1"/>
</svg>
