<svg width="24" height="24" viewBox="0 0 24 24" fill="none" xmlns="http://www.w3.org/2000/svg">
<path d="M20.6155 10.647L19.3941 4.1329C19.3598 3.9509 19.263 3.78659 19.1205 3.66836C18.978 3.55012 18.7986 3.48539 18.6134 3.48535H5.3866C5.2014 3.48539 5.02203 3.55012 4.87949 3.66836C4.73695 3.78659 4.64018 3.9509 4.60591 4.1329L3.38454 10.647C2.84462 10.7946 2.36797 11.1152 2.0276 11.5595C1.68723 12.0039 1.5019 12.5476 1.5 13.1073V16.6324C1.49999 16.7367 1.52052 16.84 1.56042 16.9363C1.60032 17.0327 1.65881 17.1202 1.73254 17.1939C1.80627 17.2677 1.89381 17.3262 1.99015 17.3661C2.08649 17.406 2.18975 17.4265 2.29402 17.4265H2.82353V18.1766C2.82353 18.7967 3.06987 19.3914 3.50836 19.8299C3.94685 20.2684 4.54157 20.5147 5.1617 20.5147C5.78182 20.5147 6.37654 20.2684 6.81503 19.8299C7.25352 19.3914 7.49986 18.7967 7.49986 18.1766V17.4265H16.5001V18.1766C16.5001 18.7967 16.7465 19.3914 17.185 19.8299C17.6234 20.2684 18.2182 20.5147 18.8383 20.5147C19.4584 20.5147 20.0531 20.2684 20.4916 19.8299C20.9301 19.3914 21.1765 18.7967 21.1765 18.1766V17.4265H21.706C21.8102 17.4265 21.9135 17.406 22.0098 17.3661C22.1062 17.3262 22.1937 17.2677 22.2675 17.1939C22.3412 17.1202 22.3997 17.0327 22.4396 16.9363C22.4795 16.84 22.5 16.7367 22.5 16.6324V13.1073C22.4981 12.5476 22.3128 12.0039 21.9724 11.5595C21.632 11.1152 21.1554 10.7946 20.6155 10.647ZM5.82341 15.3089C5.56164 15.3089 5.30575 15.2313 5.08809 15.0858C4.87043 14.9404 4.70079 14.7337 4.60062 14.4919C4.50044 14.25 4.47423 13.9839 4.5253 13.7271C4.57637 13.4704 4.70242 13.2346 4.88753 13.0495C5.07263 12.8644 5.30846 12.7383 5.5652 12.6872C5.82194 12.6362 6.08806 12.6624 6.32991 12.7626C6.57175 12.8627 6.77846 13.0324 6.92389 13.25C7.06933 13.4677 7.14695 13.7236 7.14695 13.9854C7.14696 14.1592 7.11272 14.3313 7.04621 14.4919C6.9797 14.6524 6.88221 14.7984 6.75931 14.9213C6.6364 15.0442 6.49049 15.1416 6.32991 15.2082C6.16933 15.2747 5.99722 15.3089 5.82341 15.3089ZM5.01995 10.5442L6.04578 5.07342H17.9542L18.98 10.5442H5.01995ZM18.1765 15.3089C17.9147 15.3089 17.6588 15.2313 17.4411 15.0858C17.2235 14.9404 17.0538 14.7337 16.9537 14.4919C16.8535 14.25 16.8273 13.9839 16.8784 13.7271C16.9294 13.4704 17.0555 13.2346 17.2406 13.0495C17.4257 12.8644 17.6615 12.7383 17.9183 12.6872C18.175 12.6362 18.4411 12.6624 18.683 12.7626C18.9248 12.8627 19.1315 13.0324 19.2769 13.25C19.4224 13.4677 19.5 13.7236 19.5 13.9854C19.5 14.1592 19.4658 14.3313 19.3993 14.4919C19.3328 14.6524 19.2353 14.7984 19.1124 14.9213C18.9895 15.0442 18.8435 15.1416 18.683 15.2082C18.5224 15.2747 18.3503 15.3089 18.1765 15.3089Z" fill="#2F2F2F"/>
</svg>
