<svg width="24" height="24" viewBox="0 0 24 24" fill="none" xmlns="http://www.w3.org/2000/svg">
<g clip-path="url(#clip0_378_809)">
<path d="M22.51 13.7601C22.1392 13.2482 21.9395 12.6322 21.9395 12.0001C21.9395 11.368 22.1392 10.752 22.51 10.2401L23.27 9.19011C23.3629 9.0619 23.4241 8.91345 23.4484 8.75698C23.4728 8.60051 23.4596 8.4405 23.41 8.29011C23.3599 8.1413 23.2761 8.0061 23.165 7.89507C23.054 7.78405 22.9188 7.70021 22.77 7.65011L21.54 7.25011C20.9375 7.05575 20.4123 6.67496 20.0402 6.16271C19.6681 5.65045 19.4685 5.03323 19.47 4.40011V3.10011C19.4699 2.94228 19.4324 2.78671 19.3606 2.64614C19.2889 2.50556 19.1848 2.38397 19.0571 2.29131C18.9293 2.19865 18.7814 2.13755 18.6255 2.11301C18.4696 2.08847 18.3101 2.10118 18.16 2.15011L16.92 2.55011C16.318 2.74491 15.6698 2.74439 15.0682 2.54862C14.4665 2.35285 13.9421 1.97186 13.57 1.46011L12.81 0.410112C12.713 0.288421 12.5898 0.190158 12.4495 0.122624C12.3093 0.0550893 12.1556 0.0200195 12 0.0200195C11.8444 0.0200195 11.6907 0.0550893 11.5505 0.122624C11.4103 0.190158 11.287 0.288421 11.19 0.410112L10.43 1.46011C10.0579 1.97186 9.53352 2.35285 8.93184 2.54862C8.33017 2.74439 7.682 2.74491 7.08 2.55011L5.84 2.15011C5.68994 2.10118 5.53043 2.08847 5.37452 2.11301C5.2186 2.13755 5.07071 2.19865 4.94293 2.29131C4.81516 2.38397 4.71113 2.50556 4.63936 2.64614C4.56759 2.78671 4.53012 2.94228 4.53 3.10011V4.40011C4.53154 5.03323 4.33186 5.65045 3.95981 6.16271C3.58775 6.67496 3.06254 7.05575 2.46 7.25011L1.23 7.65011C1.08119 7.70021 0.94599 7.78405 0.834964 7.89507C0.723938 8.0061 0.640098 8.1413 0.590002 8.29011C0.540414 8.4405 0.527248 8.60051 0.551587 8.75698C0.575927 8.91345 0.637076 9.0619 0.730002 9.19011L1.49 10.2401C1.86085 10.752 2.06052 11.368 2.06052 12.0001C2.06052 12.6322 1.86085 13.2482 1.49 13.7601L0.730002 14.8101C0.637076 14.9383 0.575927 15.0868 0.551587 15.2432C0.527248 15.3997 0.540414 15.5597 0.590002 15.7101C0.640098 15.8589 0.723938 15.9941 0.834964 16.1052C0.94599 16.2162 1.08119 16.3 1.23 16.3501L2.46 16.7501C3.06254 16.9445 3.58775 17.3253 3.95981 17.8375C4.33186 18.3498 4.53154 18.967 4.53 19.6001V20.9001C4.53012 21.0579 4.56759 21.2135 4.63936 21.3541C4.71113 21.4947 4.81516 21.6163 4.94293 21.7089C5.07071 21.8016 5.2186 21.8627 5.37452 21.8872C5.53043 21.9118 5.68994 21.899 5.84 21.8501L7.07 21.4501C7.67328 21.252 8.3239 21.2509 8.92788 21.4468C9.53185 21.6427 10.0579 22.0256 10.43 22.5401L11.19 23.5901C11.2834 23.7172 11.4053 23.8206 11.5461 23.8918C11.6868 23.9631 11.8423 24.0002 12 24.0002C12.1577 24.0002 12.3132 23.9631 12.4539 23.8918C12.5947 23.8206 12.7166 23.7172 12.81 23.5901L13.57 22.5401C13.9427 22.0263 14.4688 21.644 15.0726 21.4482C15.6763 21.2523 16.3267 21.253 16.93 21.4501L18.16 21.8501C18.3101 21.899 18.4696 21.9118 18.6255 21.8872C18.7814 21.8627 18.9293 21.8016 19.0571 21.7089C19.1848 21.6163 19.2889 21.4947 19.3606 21.3541C19.4324 21.2135 19.4699 21.0579 19.47 20.9001V19.6001C19.4685 18.967 19.6681 18.3498 20.0402 17.8375C20.4123 17.3253 20.9375 16.9445 21.54 16.7501L22.77 16.3501C22.9188 16.3 23.054 16.2162 23.165 16.1052C23.2761 15.9941 23.3599 15.8589 23.41 15.7101C23.4596 15.5597 23.4728 15.3997 23.4484 15.2432C23.4241 15.0868 23.3629 14.9383 23.27 14.8101L22.51 13.7601ZM16.71 10.7071L11.71 15.7071C11.5225 15.8946 11.2682 15.9999 11.003 15.9999C10.7378 15.9999 10.4835 15.8946 10.296 15.7071L7.296 12.7071C7.20049 12.6149 7.12431 12.5045 7.0719 12.3825C7.01949 12.2605 6.99191 12.1293 6.99075 11.9965C6.9896 11.8637 7.0149 11.7321 7.06518 11.6092C7.11546 11.4863 7.18971 11.3746 7.28361 11.2807C7.3775 11.1868 7.48915 11.1126 7.61205 11.0623C7.73494 11.012 7.86662 10.9867 7.9994 10.9879C8.13218 10.989 8.2634 11.0166 8.38541 11.069C8.50741 11.1214 8.61775 11.1976 8.71 11.2931L11 13.5861L15.293 9.29311C15.4816 9.11095 15.7342 9.01016 15.9964 9.01244C16.2586 9.01472 16.5094 9.11989 16.6948 9.30529C16.8802 9.4907 16.9854 9.74152 16.9877 10.0037C16.99 10.2659 16.8892 10.5185 16.707 10.7071H16.71Z" fill="#357EF1"/>
</g>
<defs>
<clipPath id="clip0_378_809">
<rect width="24" height="24" fill="white"/>
</clipPath>
</defs>
</svg>
