<svg width="24" height="24" viewBox="0 0 24 24" fill="none" xmlns="http://www.w3.org/2000/svg">
<path d="M17.8594 11.0625H12.9375V6.14062C12.9375 5.625 12.5156 5.20312 12 5.20312C11.4844 5.20312 11.0625 5.625 11.0625 6.14062V11.0625H6.14062C5.625 11.0625 5.20312 11.4844 5.20312 12C5.20312 12.5156 5.625 12.9375 6.14062 12.9375H11.0625V17.8594C11.0625 18.375 11.4844 18.7969 12 18.7969C12.5156 18.7969 12.9375 18.375 12.9375 17.8594V12.9375H17.8594C18.375 12.9375 18.7969 12.5156 18.7969 12C18.7969 11.4844 18.375 11.0625 17.8594 11.0625Z" fill="#231F20"/>
</svg>
