<svg width="20" height="20" viewBox="0 0 20 20" fill="none" xmlns="http://www.w3.org/2000/svg">
<g clip-path="url(#clip0_247_152)">
<path d="M16.25 11.8017C16.2505 11.8931 16.233 11.9836 16.1985 12.0682C16.1639 12.1528 16.113 12.2298 16.0486 12.2946C15.9841 12.3597 15.9073 12.4114 15.8227 12.4466C15.7381 12.4819 15.6474 12.5 15.5557 12.5C15.464 12.5 15.3733 12.4819 15.2887 12.4466C15.2041 12.4114 15.1273 12.3597 15.0628 12.2946L10.0014 7.22634L4.94007 12.2946C4.80933 12.4254 4.63202 12.4988 4.44713 12.4988C4.35558 12.4988 4.26493 12.4808 4.18035 12.4457C4.09577 12.4107 4.01892 12.3594 3.95418 12.2946C3.88945 12.2299 3.8381 12.153 3.80307 12.0685C3.76803 11.9839 3.75 11.8932 3.75 11.8017C3.75 11.6168 3.82345 11.4395 3.95418 11.3087L9.50847 5.75446C9.57301 5.68938 9.6498 5.63773 9.73441 5.60248C9.81901 5.56724 9.90976 5.54909 10.0014 5.54909C10.0931 5.54909 10.1838 5.56724 10.2684 5.60248C10.353 5.63773 10.4298 5.68938 10.4944 5.75446L16.0486 11.3087C16.113 11.3736 16.1639 11.4506 16.1985 11.5351C16.233 11.6197 16.2505 11.7103 16.25 11.8017Z" fill="#2F2F2F"/>
</g>
<defs>
<clipPath id="clip0_247_152">
<rect width="20" height="20" fill="white" transform="translate(0 20) rotate(-90)"/>
</clipPath>
</defs>
</svg>
