<svg width="40" height="40" viewBox="0 0 40 40" fill="none" xmlns="http://www.w3.org/2000/svg">
<path d="M0 40V21.3755C0 20.3482 0.186667 19.2261 0.56 18.0091C0.932963 16.7927 1.48704 15.9085 2.22222 15.3564V6.89C2.22222 4.94757 2.62722 3.31364 3.43722 1.98818C4.24722 0.662727 5.24574 0 6.43278 0H16.775C17.5165 0 18.1552 0.272423 18.6911 0.817272C19.2267 1.36151 19.663 2.09758 20 3.02546C20.337 2.09758 20.772 1.36151 21.305 0.817272C21.8376 0.272423 22.4748 0 23.2167 0H33.5583C34.7454 0 35.7454 0.662727 36.5583 1.98818C37.3713 3.31364 37.7778 4.94757 37.7778 6.89V15.3564C38.513 15.9085 39.067 16.7927 39.44 18.0091C39.8133 19.2261 40 20.3482 40 21.3755V40H38.1194V32.7273H1.88056V40H0ZM20.94 14.6618H35.8972V6.89C35.8972 5.80091 35.6691 4.89303 35.2128 4.16637C34.7565 3.4403 34.205 3.07727 33.5583 3.07727H23.1622C22.5326 3.07727 22.0048 3.45273 21.5789 4.20364C21.153 4.95515 20.94 5.8506 20.94 6.89V14.6618ZM4.10278 14.6618H19.06V6.89C19.06 5.8506 18.847 4.95515 18.4211 4.20364C17.9952 3.45273 17.4674 3.07727 16.8378 3.07727H6.43278C5.79204 3.07727 5.24352 3.4506 4.78722 4.19727C4.33093 4.94394 4.10278 5.84151 4.10278 6.89V14.6618ZM1.88056 29.65H38.1194V21.3755C38.1194 20.3761 37.9065 19.52 37.4806 18.8073C37.0546 18.0952 36.5269 17.7391 35.8972 17.7391H4.10278C3.47315 17.7391 2.94537 18.0952 2.51944 18.8073C2.09352 19.52 1.88056 20.3761 1.88056 21.3755V29.65Z" fill="#2F2F2F"/>
</svg>
