<svg width="46" height="20" viewBox="0 0 46 20" fill="none" xmlns="http://www.w3.org/2000/svg">
<rect y="1" width="46" height="18" rx="4" fill="#94CD1E"/>
<path d="M10.8 16L15.632 5.312L15.984 5.824H9.056L9.648 5.264V7.92H8.512V4.8H16.736V5.616L12.048 16H10.8ZM19.3621 16V5.28L19.8741 5.824H16.7221V4.8H20.5141V16H19.3621ZM22.3194 12.16V11.168H26.5114V12.16H22.3194ZM27.2338 13.056V12.224L33.1698 4.8H34.4498L28.5618 12.224L27.9378 12.032H36.9458V13.056H27.2338ZM33.5538 16V13.056L33.5858 12.032V9.44H34.7058V16H33.5538Z" fill="white"/>
</svg>
