<svg width="136" height="52" viewBox="0 0 136 52" fill="none" xmlns="http://www.w3.org/2000/svg">
<rect width="136" height="52" rx="26" fill="#2F2F2F"/>
<g clip-path="url(#clip0_462_2565)">
<path d="M91.7402 26.4401L104 26.4401" stroke="white" stroke-width="2" stroke-linecap="round" stroke-linejoin="round"/>
<path d="M104 26.44L97.8223 32" stroke="white" stroke-width="2" stroke-linecap="round" stroke-linejoin="round"/>
<path d="M104 26.4401L97.8223 20.8801" stroke="white" stroke-width="2" stroke-linecap="round" stroke-linejoin="round"/>
</g>
<path d="M47.112 18.608H49.256V33.424H47.112V18.608ZM48.776 24.128H51.4V25.888H48.776V24.128ZM38.088 19.776H40.2V23.376H43.176V19.776H45.288V30H38.088V19.776ZM40.2 25.024V28.288H43.176V25.024H40.2ZM51.7747 19.952H53.7748V23.36H55.6948V19.952H57.6468V29.92H51.7747V19.952ZM53.7748 25.024V28.208H55.6948V25.024H53.7748ZM62.0628 18.608H64.0948V33.424H62.0628V18.608ZM57.3108 24.016H59.7748V25.744H57.3108V24.016ZM59.0388 18.848H61.0388V32.768H59.0388V18.848ZM68.0855 27.168H70.2135V33.44H68.0855V27.168ZM73.2055 27.168H75.3495V33.44H73.2055V27.168ZM75.4615 22.592V24.208L66.4055 24.656L66.1495 22.864L75.4615 22.592ZM66.6455 19.392H75.9255V21.072H66.6455V19.392ZM65.0935 26.352H78.4855V28.064H65.0935V26.352ZM74.9655 19.392H77.0135V20.72C77.0135 22.368 77.0135 24.192 76.4375 26.832L74.3735 26.592C74.9655 24.096 74.9655 22.32 74.9655 20.72V19.392Z" fill="white"/>
<defs>
<clipPath id="clip0_462_2565">
<rect width="20" height="20" fill="white" transform="translate(108 36) rotate(180)"/>
</clipPath>
</defs>
</svg>
