<svg width="111" height="52" viewBox="0 0 111 52" fill="none" xmlns="http://www.w3.org/2000/svg">
<rect x="1" y="1" width="109" height="50" rx="25" fill="white" stroke="#2F2F2F" stroke-width="2"/>
<path d="M35.328 19.12C38.448 19.12 40.416 20.176 40.416 21.936C40.416 23.68 38.448 24.736 35.328 24.736C32.192 24.736 30.24 23.68 30.24 21.936C30.24 20.176 32.192 19.12 35.328 19.12ZM35.328 20.176C33.04 20.176 31.6 20.832 31.6 21.936C31.6 23.024 33.04 23.664 35.328 23.664C37.616 23.664 39.056 23.024 39.056 21.936C39.056 20.832 37.616 20.176 35.328 20.176ZM28.784 26.128H41.856V27.216H28.784V26.128ZM34.672 24.208H35.984V26.512H34.672V24.208ZM30.24 28.576H40.24V33.248H38.912V29.664H30.24V28.576ZM46.0228 19.536H47.1268V21.008C47.1268 23.792 45.5588 26.096 43.1428 27.04L42.4388 25.968C44.6148 25.168 46.0228 23.216 46.0228 21.008V19.536ZM46.2628 19.536H47.3508V21.104C47.3508 23.056 48.7908 24.864 50.8708 25.584L50.1667 26.624C47.8468 25.76 46.2628 23.616 46.2628 21.104V19.536ZM52.4068 18.784H53.7348V27.552H52.4068V18.784ZM53.3668 22.512H55.8788V23.632H53.3668V22.512ZM49.1268 27.952C52.0868 27.952 53.8788 28.928 53.8788 30.592C53.8788 32.256 52.0868 33.216 49.1268 33.216C46.1668 33.216 44.3748 32.256 44.3748 30.592C44.3748 28.928 46.1668 27.952 49.1268 27.952ZM49.1268 29.008C46.9828 29.008 45.6708 29.584 45.6708 30.592C45.6708 31.6 46.9828 32.176 49.1268 32.176C51.2708 32.176 52.5828 31.6 52.5828 30.592C52.5828 29.584 51.2708 29.008 49.1268 29.008ZM63.9495 22.528H67.2135V23.632H63.9495V22.528ZM66.7975 18.784H68.1255V27.408H66.7975V18.784ZM63.3735 27.84C66.3495 27.84 68.1895 28.848 68.1895 30.544C68.1895 32.256 66.3495 33.232 63.3735 33.232C60.3815 33.232 58.5415 32.256 58.5415 30.544C58.5415 28.848 60.3815 27.84 63.3735 27.84ZM63.3735 28.88C61.1975 28.88 59.8695 29.488 59.8695 30.544C59.8695 31.584 61.1975 32.192 63.3735 32.192C65.5495 32.192 66.8775 31.584 66.8775 30.544C66.8775 29.488 65.5495 28.88 63.3735 28.88ZM59.9175 20.24H61.0055V21.408C61.0055 24.08 59.3735 26.368 56.9735 27.264L56.2855 26.208C58.4295 25.424 59.9175 23.488 59.9175 21.408V20.24ZM60.1735 20.24H61.2455V21.408C61.2455 23.28 62.6535 25.072 64.7495 25.808L64.0775 26.864C61.7255 26.016 60.1735 23.84 60.1735 21.408V20.24ZM56.6855 19.84H64.4135V20.928H56.6855V19.84ZM74.0523 26.064H75.3803V29.28H74.0523V26.064ZM80.4683 18.784H81.7963V29.792H80.4683V18.784ZM71.9243 31.84H82.1483V32.928H71.9243V31.84ZM71.9243 28.72H73.2523V32.144H71.9243V28.72ZM70.0523 26.56L69.8763 25.472C72.5483 25.472 76.1323 25.44 79.2043 25.04L79.3003 26.016C76.1803 26.512 72.6763 26.56 70.0523 26.56ZM77.5243 27.328H80.8043V28.304H77.5243V27.328ZM74.5803 19.376C76.6923 19.376 78.1323 20.368 78.1323 21.888C78.1323 23.424 76.6923 24.416 74.5803 24.416C72.4523 24.416 71.0123 23.424 71.0123 21.888C71.0123 20.368 72.4523 19.376 74.5803 19.376ZM74.5803 20.368C73.2203 20.368 72.2763 20.96 72.2763 21.888C72.2763 22.816 73.2203 23.408 74.5803 23.408C75.9243 23.408 76.8683 22.816 76.8683 21.888C76.8683 20.96 75.9243 20.368 74.5803 20.368Z" fill="#2F2F2F"/>
</svg>
