<svg width="121" height="52" viewBox="0 0 121 52" fill="none" xmlns="http://www.w3.org/2000/svg">
<rect x="1" y="1" width="119" height="50" rx="25" fill="white" stroke="#2F2F2F" stroke-width="2"/>
<path d="M28.672 28.784C30.048 28.784 31.024 27.264 31.024 24.928C31.024 22.624 30.048 21.12 28.672 21.12C27.28 21.12 26.304 22.624 26.304 24.928C26.304 27.264 27.28 28.784 28.672 28.784ZM28.672 19.936C30.784 19.936 32.272 21.888 32.272 24.928C32.272 28 30.784 29.952 28.672 29.952C26.56 29.952 25.056 28 25.056 24.928C25.056 21.888 26.56 19.936 28.672 19.936ZM38.176 23.536H35.888V26.72H38.176V27.808H35.888V33.184H34.576V18.848H35.888V22.448H38.176V23.536ZM40.6628 23.12C40.6628 24.464 41.7508 25.392 43.2068 25.392C44.7108 25.392 45.7828 24.464 45.7828 23.12C45.7828 21.792 44.7108 20.88 43.2068 20.88C41.7508 20.88 40.6628 21.792 40.6628 23.12ZM43.8628 26.464V28.896C45.2548 28.816 46.6788 28.704 48.0068 28.496L48.1188 29.472C44.8868 30.064 41.4148 30.096 38.8228 30.096L38.6628 28.992C39.8148 28.992 41.1428 28.992 42.5508 28.944V26.464C40.6948 26.224 39.3828 24.928 39.3828 23.12C39.3828 21.12 40.9988 19.76 43.2068 19.76C45.4628 19.76 47.0628 21.12 47.0628 23.12C47.0628 24.928 45.7668 26.24 43.8628 26.464ZM48.9508 18.816H50.2628V33.216H48.9508V18.816ZM67.9344 24.304L67.3904 25.36C65.1664 24.976 63.0064 23.728 62.0784 22C61.1824 23.744 59.0224 24.976 56.7824 25.36L56.2544 24.304C58.8624 23.92 61.3904 22.192 61.3904 20.144V19.344H62.7664V20.144C62.7664 22.144 65.3264 23.92 67.9344 24.304ZM68.5584 26.912L68.5744 28H62.7024V33.2H61.3904V28H55.5984V26.912H68.5584ZM70.7731 23.088C70.7731 24.432 71.8291 25.392 73.2211 25.392C74.6291 25.392 75.6531 24.432 75.6531 23.088C75.6531 21.76 74.6291 20.8 73.2211 20.8C71.8291 20.8 70.7731 21.76 70.7731 23.088ZM79.7971 21.968H76.7251C76.8371 22.304 76.9011 22.672 76.9011 23.088C76.9011 23.488 76.8371 23.856 76.7091 24.208H79.7971V21.968ZM79.7971 25.28H76.1171C75.4611 26.048 74.4371 26.512 73.2211 26.512C71.0931 26.512 69.5251 25.104 69.5251 23.088C69.5251 21.088 71.0931 19.696 73.2211 19.696C74.4371 19.696 75.4611 20.16 76.1171 20.896H79.7971V18.832H81.1251V27.328H79.7971V25.28ZM76.3731 32.128C78.5651 32.128 79.8771 31.488 79.8771 30.416C79.8771 29.328 78.5651 28.688 76.3731 28.688C74.2131 28.688 72.9011 29.328 72.9011 30.416C72.9011 31.488 74.2131 32.128 76.3731 32.128ZM76.3731 27.664C79.3331 27.664 81.1731 28.672 81.1731 30.416C81.1731 32.16 79.3331 33.168 76.3731 33.168C73.4291 33.168 71.6051 32.16 71.6051 30.416C71.6051 28.672 73.4291 27.664 76.3731 27.664ZM91.3399 25.776L90.7159 26.8C89.0839 26.272 87.8519 25.136 87.2439 23.712C86.6359 25.344 85.3399 26.624 83.6279 27.232L82.9559 26.192C85.1159 25.44 86.5559 23.584 86.5559 21.52V20.96H83.3399V19.904H91.0359V20.96H87.8679V21.52C87.8679 23.392 89.2279 25.072 91.3399 25.776ZM89.5959 32.128C91.7079 32.128 93.0039 31.536 93.0039 30.512C93.0039 29.504 91.7079 28.912 89.5959 28.912C87.4519 28.912 86.1719 29.504 86.1719 30.512C86.1719 31.536 87.4519 32.128 89.5959 32.128ZM89.5959 27.872C92.5079 27.872 94.3159 28.848 94.3159 30.512C94.3159 32.192 92.5079 33.168 89.5959 33.168C86.6519 33.168 84.8599 32.192 84.8599 30.512C84.8599 28.848 86.6519 27.872 89.5959 27.872ZM94.1559 22.464H96.2839V23.568H94.1559V27.504H92.8439V18.848H94.1559V22.464Z" fill="#2F2F2F"/>
</svg>
