<svg width="114" height="46" viewBox="0 0 114 46" fill="none" xmlns="http://www.w3.org/2000/svg">
<rect y="39.6574" width="98" height="5.97609" fill="#1F1F1F"/>
<rect x="106" y="37.6653" width="8" height="7.96813" rx="3.98406" fill="#1F1F1F"/>
<path d="M89.9609 29.6972V18.6614C89.9609 17.6521 89.6409 16.842 89.0009 16.2311C88.3876 15.5937 87.6009 15.2749 86.6409 15.2749C85.9743 15.2749 85.3876 15.421 84.8809 15.7132C84.3743 15.9788 83.9743 16.3772 83.6809 16.9084C83.3876 17.413 83.2409 17.9974 83.2409 18.6614L80.8809 17.506C80.8809 15.9921 81.2143 14.664 81.8809 13.5219C82.5476 12.3798 83.4676 11.5033 84.6409 10.8925C85.8409 10.255 87.1876 9.93628 88.6809 9.93628C90.1209 9.93628 91.3876 10.2816 92.4809 10.9721C93.6009 11.6361 94.4809 12.5259 95.1209 13.6415C95.7609 14.757 96.0809 15.9788 96.0809 17.3068V29.6972H89.9609ZM77.1209 29.6972V10.3347H83.2409V29.6972H77.1209Z" fill="#1F1F1F"/>
<path d="M63.4341 30.1355C61.4341 30.1355 59.6207 29.6972 57.9941 28.8207C56.3941 27.9177 55.1274 26.6959 54.1941 25.1554C53.2607 23.6149 52.7941 21.8884 52.7941 19.9761C52.7941 18.0637 53.2607 16.3506 54.1941 14.8367C55.1274 13.3227 56.3941 12.1275 57.9941 11.251C59.5941 10.3479 61.4074 9.89642 63.4341 9.89642C65.4607 9.89642 67.2741 10.3347 68.8741 11.2112C70.4741 12.0877 71.7407 13.2961 72.6741 14.8367C73.6074 16.3506 74.0741 18.0637 74.0741 19.9761C74.0741 21.8884 73.6074 23.6149 72.6741 25.1554C71.7407 26.6959 70.4741 27.9177 68.8741 28.8207C67.2741 29.6972 65.4607 30.1355 63.4341 30.1355ZM63.4341 24.5976C64.3141 24.5976 65.0874 24.4117 65.7541 24.0398C66.4207 23.6414 66.9274 23.0969 67.2741 22.4064C67.6474 21.6892 67.8341 20.8792 67.8341 19.9761C67.8341 19.073 67.6474 18.2895 67.2741 17.6255C66.9007 16.9349 66.3807 16.4037 65.7141 16.0319C65.0741 15.6335 64.3141 15.4343 63.4341 15.4343C62.5807 15.4343 61.8207 15.6335 61.1541 16.0319C60.4874 16.4037 59.9674 16.9349 59.5941 17.6255C59.2207 18.3161 59.0341 19.1129 59.0341 20.0159C59.0341 20.8924 59.2207 21.6892 59.5941 22.4064C59.9674 23.0969 60.4874 23.6414 61.1541 24.0398C61.8207 24.4117 62.5807 24.5976 63.4341 24.5976Z" fill="#1F1F1F"/>
<path d="M24.389 29.6972L35.589 1.56971H41.269L52.349 29.6972H45.709L37.229 6.35059H39.509L30.909 29.6972H24.389ZM30.749 24.5976V19.498H46.149V24.5976H30.749Z" fill="#1F1F1F"/>
<path d="M10.44 30.0956C8.59999 30.0956 6.95999 29.6574 5.51999 28.7809C4.10666 27.9044 2.98666 26.7092 2.15999 25.1952C1.35999 23.6813 0.959991 21.9548 0.959991 20.0159C0.959991 18.077 1.35999 16.3506 2.15999 14.8366C2.98666 13.3227 4.10666 12.1275 5.51999 11.251C6.95999 10.3745 8.59999 9.93625 10.44 9.93625C11.7733 9.93625 12.9733 10.1886 14.04 10.6932C15.1333 11.1979 16.0267 11.9017 16.72 12.8048C17.44 13.6813 17.84 14.6906 17.92 15.8327V24C17.84 25.1421 17.4533 26.1779 16.76 27.1076C16.0667 28.0106 15.1733 28.741 14.08 29.2988C12.9867 29.83 11.7733 30.0956 10.44 30.0956ZM11.52 24.5976C12.4 24.5976 13.16 24.4117 13.8 24.0398C14.44 23.6414 14.9467 23.0969 15.32 22.4064C15.6933 21.7158 15.88 20.919 15.88 20.0159C15.88 19.1129 15.6933 18.3293 15.32 17.6653C14.9733 16.9748 14.4667 16.4303 13.8 16.0319C13.16 15.6335 12.4133 15.4343 11.56 15.4343C10.7067 15.4343 9.94666 15.6335 9.27999 16.0319C8.63999 16.4303 8.11999 16.9748 7.71999 17.6653C7.34666 18.3559 7.15999 19.1394 7.15999 20.0159C7.15999 20.8924 7.34666 21.676 7.71999 22.3665C8.09333 23.0571 8.61333 23.6016 9.27999 24C9.94666 24.3984 10.6933 24.5976 11.52 24.5976ZM21.64 29.6972H15.64V24.4781L16.56 19.7769L15.52 15.0757V0.772903H21.64V29.6972Z" fill="#1F1F1F"/>
</svg>
